
<?xml version="1.0" encoding="UTF-8"?><svg xmlns="http://www.w3.org/2000/svg" xmlns:xlink="http://www.w3.org/1999/xlink" contentScriptType="text/ecmascript" width="150" zoomAndPan="magnify" contentStyleType="text/css" viewBox="0 0 150 149.999998" height="149.999998" preserveAspectRatio="xMidYMid meet" version="1.0"><defs><clipPath id="clip-0"><path d="M 9 125 L 148.1875 125 L 148.1875 139 L 9 139 Z M 9 125 " clip-rule="nonzero"/></clipPath><clipPath id="clip-1"><path d="M 9 117 L 148.1875 117 L 148.1875 135 L 9 135 Z M 9 117 " clip-rule="nonzero"/></clipPath><clipPath id="clip-2"><path d="M 72 117 L 148.1875 117 L 148.1875 135 L 72 135 Z M 72 117 " clip-rule="nonzero"/></clipPath><clipPath id="clip-3"><path d="M 38.515625 15 L 84.917969 15 L 84.917969 54.75 L 38.515625 54.75 Z M 38.515625 15 " clip-rule="nonzero"/></clipPath></defs><path fill="rgb(61.569214%, 87.449646%, 91.369629%)" d="M 27.242188 124.230469 C 27.242188 124.230469 2.027344 91.1875 15.378906 68.964844 C 28.722656 46.738281 60.609375 45.257812 60.609375 45.257812 L 66.722656 69.695312 C 66.722656 69.695312 29.464844 94.335938 68.023438 123.507812 L 27.242188 124.230469 " fill-opacity="1" fill-rule="nonzero"/><path fill="rgb(86.268616%, 95.289612%, 97.24884%)" d="M 92.175781 62.730469 C 93.425781 62.59375 93.5 61.425781 91.933594 61.714844 C 90.945312 61.894531 90.808594 62.878906 92.175781 62.730469 Z M 55.492188 79.453125 C 52.066406 79.890625 52.996094 82.246094 55.667969 81.710938 C 58.589844 81.121094 57.660156 79.179688 55.492188 79.453125 Z M 49.308594 76.417969 C 48.773438 76.464844 48.773438 77.011719 49.308594 76.933594 C 49.84375 76.855469 49.84375 76.367188 49.308594 76.417969 Z M 48.792969 74.527344 C 48.148438 74.402344 47.953125 75.304688 48.792969 75.304688 C 49.632812 75.304688 49.4375 74.65625 48.792969 74.527344 Z M 45.003906 75.605469 C 42.277344 76.304688 42.632812 78.355469 45.003906 78.183594 C 47.375 78.011719 45.984375 75.351562 45.003906 75.605469 Z M 16.136719 91.679688 C 12.007812 76.722656 22.460938 65.914062 22.460938 65.914062 C 15.566406 78.433594 16.136719 91.679688 16.136719 91.679688 " fill-opacity="1" fill-rule="nonzero"/><path fill="rgb(53.329468%, 84.309387%, 84.309387%)" d="M 93.902344 65.378906 C 93.378906 65.496094 93.449219 66.035156 93.96875 65.890625 C 94.492188 65.742188 94.425781 65.257812 93.902344 65.378906 Z M 70.566406 76.417969 C 70.042969 76.535156 70.117188 77.078125 70.636719 76.929688 C 71.15625 76.785156 71.09375 76.300781 70.566406 76.417969 Z M 94.175781 63.300781 C 93.527344 63.421875 93.683594 64.332031 94.464844 64.019531 C 95.242188 63.707031 94.824219 63.179688 94.175781 63.300781 Z M 72.003906 74.164062 C 71.355469 74.285156 71.511719 75.195312 72.289062 74.882812 C 73.070312 74.570312 72.648438 74.042969 72.003906 74.164062 Z M 36.1875 106.039062 C 36.1875 106.039062 37.21875 116.527344 42.726562 121.859375 C 42.726562 121.859375 34.8125 116.699219 36.1875 106.039062 " fill-opacity="1" fill-rule="nonzero"/><path fill="rgb(78.039551%, 92.939758%, 95.289612%)" d="M 89.6875 66.671875 C 86.714844 66.878906 86.042969 69.367188 88.316406 69.769531 C 90.589844 70.171875 94.4375 66.34375 89.6875 66.671875 Z M 62.003906 77.660156 C 61.023438 77.707031 60.898438 78.648438 62.140625 78.421875 C 63.382812 78.195312 62.980469 77.613281 62.003906 77.660156 Z M 67.324219 77.277344 C 62.4375 77.898438 63.757812 81.265625 67.574219 80.496094 C 71.738281 79.65625 70.414062 76.882812 67.324219 77.277344 Z M 49.4375 108.789062 C 42.382812 96.238281 49.4375 84.742188 49.4375 84.742188 C 39.457031 95.429688 49.4375 108.789062 49.4375 108.789062 Z M 15.378906 68.964844 C 15.378906 68.964844 18.71875 78.269531 30.464844 76.335938 C 41.339844 74.542969 45.179688 70.789062 45.804688 66.222656 C 45.804688 66.222656 45.972656 77.402344 60.023438 77.238281 C 74.074219 77.070312 72.671875 64.609375 72.671875 64.609375 C 72.671875 64.609375 73.890625 69.742188 80.675781 67.4375 C 87.128906 65.246094 84.289062 60.613281 84.289062 60.613281 C 84.289062 60.613281 99.777344 55.207031 84.289062 45.257812 C 68.023438 34.808594 32.53125 41.222656 15.378906 68.964844 Z M 33.90625 110.96875 C 33.90625 110.96875 34.347656 116.90625 37.386719 119.988281 C 37.386719 119.988281 32.984375 116.96875 33.90625 110.96875 " fill-opacity="1" fill-rule="nonzero"/><g clip-path="url(#clip-0)"><path fill="rgb(25.878906%, 18.03894%, 18.818665%)" d="M 9.777344 125.609375 C 9.777344 125.609375 26.574219 135.355469 69.234375 137.957031 C 111.898438 140.554688 148.117188 126 148.117188 126 L 9.777344 125.609375 " fill-opacity="1" fill-rule="nonzero"/></g><g clip-path="url(#clip-1)"><path fill="rgb(48.629761%, 83.139038%, 89.7995%)" d="M 9.777344 125.609375 C 9.777344 125.609375 59.5625 117.035156 78.554688 117.035156 C 101.035156 117.035156 148.117188 126 148.117188 126 C 148.117188 126 128.355469 134.964844 66.738281 134.964844 C 39.421875 134.964844 9.777344 125.609375 9.777344 125.609375 " fill-opacity="1" fill-rule="nonzero"/></g><g clip-path="url(#clip-2)"><path fill="rgb(83.529663%, 61.178589%, 45.489502%)" d="M 93.898438 125.609375 C 96.296875 125.609375 98.699219 128.957031 89.097656 130.15625 C 79.503906 131.355469 84.179688 133.953125 85.90625 134.652344 C 132.53125 133.066406 148.117188 126 148.117188 126 C 148.117188 126 101.035156 117.035156 78.554688 117.035156 C 78.554688 117.035156 57.148438 125.609375 93.898438 125.609375 " fill-opacity="1" fill-rule="nonzero"/></g><path fill="rgb(70.588684%, 32.548523%, 17.248535%)" d="M 115.125 124.636719 C 115.125 124.636719 119.421875 112.152344 118.25 100.453125 L 119.160156 99.671875 C 119.160156 99.671875 121.242188 102.140625 119.160156 125.15625 L 115.125 124.636719 " fill-opacity="1" fill-rule="nonzero"/><path fill="rgb(45.878601%, 75.289917%, 17.248535%)" d="M 111.40625 87.667969 C 111.40625 87.667969 110.613281 93.386719 113.996094 97.027344 C 113.996094 97.027344 107.578125 97.632812 106.363281 100.582031 C 106.363281 100.582031 112.261719 102.835938 115.125 100.148438 C 115.125 100.148438 113.910156 104.828125 115.644531 107.863281 C 115.644531 107.863281 118.855469 104.484375 118.855469 100.667969 C 118.855469 100.667969 119.550781 102.054688 123.367188 103.09375 C 123.367188 103.09375 122.328125 100.582031 120.9375 99.195312 C 120.9375 99.195312 126.664062 99.886719 130.742188 97.375 C 130.742188 97.375 127.792969 93.992188 121.804688 94.6875 C 121.804688 94.6875 122.152344 92 121.027344 90.527344 C 121.027344 90.527344 118.609375 91.132812 117.605469 94.253906 C 117.605469 94.253906 116.878906 88.621094 111.40625 87.667969 " fill-opacity="1" fill-rule="nonzero"/><path fill="rgb(70.588684%, 32.548523%, 17.248535%)" d="M 126.316406 125.609375 C 126.316406 125.609375 125.539062 116.3125 129.960938 109.8125 L 130.742188 110.464844 C 130.742188 110.464844 126.839844 115.96875 129.308594 125.15625 L 126.316406 125.609375 " fill-opacity="1" fill-rule="nonzero"/><path fill="rgb(45.878601%, 75.289917%, 17.248535%)" d="M 137.511719 106.605469 C 137.511719 106.605469 135.601562 109.402344 132.933594 110.0625 C 132.933594 110.0625 136.121094 111.253906 136.335938 112.921875 C 136.335938 112.921875 133.019531 113.261719 131.929688 111.5 C 131.929688 111.5 132.867188 113.835938 131.566406 115.144531 C 131.566406 115.144531 130.214844 114.152344 129.410156 111.863281 C 129.410156 111.863281 127.203125 112.5 125.492188 112.414062 C 125.492188 112.414062 126.265625 110.117188 128.789062 109.402344 C 128.789062 109.402344 126.628906 109.121094 125.710938 107.386719 C 125.710938 107.386719 127.878906 107.210938 129.277344 107.796875 C 129.277344 107.796875 128.503906 105.003906 130.742188 103.660156 C 130.742188 103.660156 132.304688 106.304688 131.476562 108.152344 C 131.476562 108.152344 134.585938 106.339844 137.511719 106.605469 " fill-opacity="1" fill-rule="nonzero"/><g clip-path="url(#clip-3)"><path fill="rgb(36.859131%, 78.819275%, 78.42865%)" d="M 79.296875 43.273438 C 79.222656 43.261719 79.152344 43.25 79.089844 43.230469 C 78.902344 42.476562 79.789062 42.347656 79.789062 41.839844 C 79.789062 40.949219 78.773438 42.347656 78.394531 41.410156 C 78.402344 41.339844 78.410156 41.269531 78.417969 41.199219 C 78.503906 40.394531 78.570312 39.554688 78.613281 38.671875 C 82.929688 32.976562 85.507812 23.890625 84.804688 18.992188 C 84.835938 18.796875 84.585938 17.222656 84.597656 17.003906 C 84.652344 15.917969 84.699219 15.09375 84.050781 15.003906 C 83.519531 14.933594 83.394531 15.5625 83.335938 16.394531 C 83.136719 15.566406 82.925781 14.992188 82.378906 15.070312 C 81.902344 15.136719 81.890625 15.652344 82.011719 16.34375 C 81.761719 15.734375 81.496094 15.355469 81.039062 15.476562 C 80.566406 15.597656 80.621094 16.125 80.828125 16.816406 C 80.40625 16.21875 80.035156 15.855469 79.589844 16.097656 C 79.019531 16.410156 79.535156 17.191406 80.128906 18.097656 C 80.308594 18.371094 80.648438 18.890625 80.996094 20.128906 C 81.964844 24.824219 80.597656 29.859375 78.542969 33.746094 C 78.375 32.316406 78.050781 31.003906 77.605469 29.808594 C 77.578125 29.742188 77.554688 29.679688 77.535156 29.613281 C 77.757812 28.96875 78.519531 28.96875 78.902344 28.457031 C 78.902344 28.332031 78.902344 28.074219 78.773438 28.074219 C 78.140625 28.074219 77.25 28.457031 76.777344 27.648438 C 76.792969 27.574219 76.824219 27.515625 76.863281 27.460938 C 77.226562 26.90625 78.054688 26.800781 78.265625 26.164062 C 77.6875 26.019531 77.148438 26.289062 76.632812 26.375 C 76.570312 26.386719 76.503906 26.394531 76.441406 26.398438 C 75.09375 26.164062 76.488281 24.632812 76.109375 24.253906 C 75.855469 23.871094 75.222656 24.890625 74.425781 24.734375 C 74.394531 24.703125 74.367188 24.671875 74.335938 24.644531 C 73.234375 23.503906 71.988281 22.566406 70.671875 21.816406 C 70.613281 21.777344 70.546875 21.742188 70.484375 21.707031 C 69.761719 21.191406 71.160156 20.554688 70.90625 20.175781 C 70.523438 19.535156 69.253906 21.191406 68.820312 20.074219 C 68.820312 20.011719 68.820312 19.949219 68.824219 19.886719 C 68.84375 19.441406 68.9375 18.964844 68.875 18.515625 C 68.367188 18.582031 68.242188 18.996094 68.117188 19.414062 C 68.097656 19.484375 68.074219 19.550781 68.054688 19.621094 C 67.351562 20.046875 67.226562 18.898438 66.972656 18.515625 C 66.84375 18.390625 66.589844 18.390625 66.464844 18.644531 C 66.335938 19.027344 66.71875 19.792969 66.023438 19.925781 C 65.949219 19.90625 65.875 19.886719 65.796875 19.867188 C 64.292969 19.492188 62.820312 19.316406 61.488281 19.316406 C 61.484375 19.316406 61.484375 19.316406 61.480469 19.316406 C 61.480469 19.316406 61.476562 19.316406 61.476562 19.316406 C 58.445312 19.316406 54.683594 20.226562 51.453125 22.324219 C 51.421875 22.347656 51.386719 22.371094 51.351562 22.390625 C 51.359375 22.46875 51.234375 22.59375 51.105469 22.46875 C 50.851562 22.085938 50.980469 21.449219 50.726562 21.449219 C 49.835938 21.320312 50.347656 22.722656 49.710938 23.105469 C 49.585938 23.105469 49.457031 22.851562 49.464844 22.605469 C 49.433594 22.523438 49.394531 22.46875 49.332031 22.46875 C 48.441406 22.46875 49.203125 23.871094 48.304688 24.117188 C 48.242188 24.101562 48.175781 24.074219 48.113281 24.042969 C 47.664062 23.839844 47.269531 23.574219 47.046875 23.871094 C 46.664062 24.378906 48.316406 24.632812 47.777344 25.59375 C 47.75 25.632812 47.722656 25.664062 47.699219 25.695312 C 46.242188 27.507812 45.140625 29.746094 44.617188 32.46875 C 44.609375 32.515625 44.601562 32.5625 44.585938 32.613281 C 44.554688 32.710938 44.515625 32.808594 44.46875 32.902344 C 42.65625 29.148438 41.539062 24.492188 42.4375 20.128906 C 42.789062 18.890625 43.128906 18.371094 43.304688 18.097656 C 43.902344 17.191406 44.414062 16.410156 43.847656 16.097656 C 43.402344 15.855469 43.03125 16.21875 42.605469 16.816406 C 42.816406 16.125 42.871094 15.597656 42.398438 15.476562 C 41.941406 15.355469 41.671875 15.734375 41.425781 16.34375 C 41.546875 15.652344 41.535156 15.136719 41.058594 15.070312 C 40.507812 14.992188 40.296875 15.566406 40.101562 16.394531 C 40.042969 15.5625 39.917969 14.933594 39.382812 15.003906 C 38.738281 15.09375 38.78125 15.917969 38.839844 17.003906 C 38.851562 17.222656 38.597656 18.796875 38.632812 18.992188 C 38 23.40625 40.027344 31.214844 43.59375 36.886719 C 43.238281 37.386719 42.960938 37.855469 43.363281 38.398438 C 43.605469 38.757812 43.84375 37.988281 44.1875 37.792969 C 44.210938 37.824219 44.234375 37.859375 44.257812 37.890625 C 44.257812 37.90625 44.261719 37.917969 44.261719 37.929688 C 44.269531 37.96875 44.285156 37.988281 44.3125 37.972656 C 44.316406 37.976562 44.316406 37.976562 44.320312 37.980469 C 44.371094 39.164062 42.730469 39.421875 42.984375 40.308594 C 43.113281 40.691406 44 39.800781 44.472656 40.441406 C 44.476562 40.484375 44.480469 40.523438 44.484375 40.566406 C 44.652344 42.445312 44.929688 44.117188 45.28125 45.601562 C 45.296875 45.667969 45.3125 45.734375 45.316406 45.796875 C 44.125 45.917969 44.378906 46.9375 44.941406 47.582031 C 44.890625 47.628906 44.835938 47.667969 44.777344 47.707031 C 44.5 47.894531 44.273438 48.074219 44.378906 48.339844 C 44.507812 48.59375 44.792969 48.5625 45.125 48.511719 C 45.195312 48.5 45.261719 48.488281 45.324219 48.492188 C 45.902344 49.105469 45.015625 49.867188 45.523438 50.25 C 45.902344 50.632812 46.03125 49.359375 46.65625 49.769531 C 46.679688 49.816406 46.703125 49.863281 46.722656 49.910156 C 48.042969 52.785156 49.660156 54.289062 50.972656 54.628906 C 53.664062 55.324219 55.320312 53.042969 55.578125 50.109375 C 55.707031 48.644531 56.351562 47.347656 57.453125 46.796875 C 58.820312 46.113281 61.351562 46.0625 61.480469 46.058594 C 61.613281 46.0625 64.144531 46.113281 65.511719 46.796875 C 66.613281 47.347656 67.257812 48.644531 67.386719 50.109375 C 67.640625 53.042969 69.300781 55.324219 71.992188 54.628906 C 73.816406 54.15625 76.242188 51.421875 77.613281 45.890625 C 77.628906 45.832031 77.640625 45.773438 77.65625 45.71875 C 78.519531 45.027344 78.902344 46.808594 79.28125 46.042969 C 79.664062 45.535156 78.394531 45.027344 78.6875 44.121094 C 78.753906 44.105469 78.824219 44.097656 78.898438 44.09375 C 79.402344 44.0625 79.894531 44.121094 80.042969 43.75 C 80.105469 43.367188 79.726562 43.335938 79.296875 43.273438 " fill-opacity="1" fill-rule="nonzero"/></g><path fill="rgb(93.328857%, 16.079712%, 20.779419%)" d="M 74.203125 32.109375 C 74.203125 34.234375 72.492188 35.957031 70.375 35.957031 C 68.261719 35.957031 66.546875 34.234375 66.546875 32.109375 C 66.546875 29.988281 68.261719 28.265625 70.375 28.265625 C 72.492188 28.265625 74.203125 29.988281 74.203125 32.109375 " fill-opacity="1" fill-rule="nonzero"/><path fill="rgb(6.269836%, 5.879211%, 5.099487%)" d="M 72.96875 32.597656 C 72.96875 33.816406 71.984375 34.800781 70.773438 34.800781 C 69.5625 34.800781 68.582031 33.816406 68.582031 32.597656 C 68.582031 31.382812 69.5625 30.398438 70.773438 30.398438 C 71.984375 30.398438 72.96875 31.382812 72.96875 32.597656 " fill-opacity="1" fill-rule="nonzero"/><path fill="rgb(100%, 100%, 100%)" d="M 70.210938 30.953125 C 70.210938 31.460938 69.800781 31.871094 69.296875 31.871094 C 68.789062 31.871094 68.378906 31.460938 68.378906 30.953125 C 68.378906 30.445312 68.789062 30.035156 69.296875 30.035156 C 69.800781 30.035156 70.210938 30.445312 70.210938 30.953125 " fill-opacity="1" fill-rule="nonzero"/><path fill="rgb(100%, 100%, 100%)" d="M 72.769531 34.246094 C 72.769531 34.554688 72.523438 34.800781 72.21875 34.800781 C 71.910156 34.800781 71.664062 34.554688 71.664062 34.246094 C 71.664062 33.9375 71.910156 33.691406 72.21875 33.691406 C 72.523438 33.691406 72.769531 33.9375 72.769531 34.246094 " fill-opacity="1" fill-rule="nonzero"/><path fill="rgb(93.328857%, 16.079712%, 20.779419%)" d="M 56.453125 32.152344 C 56.453125 34.277344 54.738281 35.996094 52.625 35.996094 C 50.511719 35.996094 48.796875 34.277344 48.796875 32.152344 C 48.796875 30.03125 50.511719 28.308594 52.625 28.308594 C 54.738281 28.308594 56.453125 30.03125 56.453125 32.152344 " fill-opacity="1" fill-rule="nonzero"/><path fill="rgb(6.269836%, 5.879211%, 5.099487%)" d="M 55.21875 32.640625 C 55.21875 33.859375 54.234375 34.84375 53.023438 34.84375 C 51.8125 34.84375 50.832031 33.859375 50.832031 32.640625 C 50.832031 31.425781 51.8125 30.441406 53.023438 30.441406 C 54.234375 30.441406 55.21875 31.425781 55.21875 32.640625 " fill-opacity="1" fill-rule="nonzero"/><path fill="rgb(100%, 100%, 100%)" d="M 52.460938 30.996094 C 52.460938 31.503906 52.050781 31.914062 51.542969 31.914062 C 51.039062 31.914062 50.628906 31.503906 50.628906 30.996094 C 50.628906 30.488281 51.039062 30.078125 51.542969 30.078125 C 52.050781 30.078125 52.460938 30.488281 52.460938 30.996094 " fill-opacity="1" fill-rule="nonzero"/><path fill="rgb(100%, 100%, 100%)" d="M 55.019531 34.289062 C 55.019531 34.59375 54.773438 34.84375 54.464844 34.84375 C 54.160156 34.84375 53.914062 34.59375 53.914062 34.289062 C 53.914062 33.980469 54.160156 33.730469 54.464844 33.730469 C 54.773438 33.730469 55.019531 33.980469 55.019531 34.289062 " fill-opacity="1" fill-rule="nonzero"/><path fill="rgb(100%, 100%, 100%)" d="M 56.238281 39.433594 C 55.429688 39.242188 54.660156 41.0625 53.972656 41.867188 C 53.230469 42.738281 56.832031 43.414062 56.804688 42.890625 C 56.730469 41.472656 57.085938 39.632812 56.238281 39.433594 " fill-opacity="1" fill-rule="nonzero"/><path fill="rgb(54.508972%, 84.709167%, 80.389404%)" d="M 74.007812 51.644531 C 73.78125 52.132812 73.347656 52.40625 73.042969 52.261719 C 72.738281 52.117188 72.675781 51.609375 72.902344 51.121094 C 73.132812 50.636719 73.5625 50.363281 73.867188 50.507812 C 74.171875 50.652344 74.234375 51.160156 74.007812 51.644531 " fill-opacity="1" fill-rule="nonzero"/><path fill="rgb(54.508972%, 84.709167%, 80.389404%)" d="M 73.757812 47.976562 C 73.59375 48.324219 73.28125 48.523438 73.0625 48.421875 C 72.839844 48.316406 72.796875 47.949219 72.960938 47.597656 C 73.125 47.25 73.4375 47.050781 73.65625 47.15625 C 73.875 47.257812 73.921875 47.625 73.757812 47.976562 " fill-opacity="1" fill-rule="nonzero"/><path fill="rgb(54.508972%, 84.709167%, 80.389404%)" d="M 73.445312 49.570312 C 73.289062 49.902344 72.996094 50.089844 72.785156 49.992188 C 72.578125 49.894531 72.535156 49.542969 72.691406 49.210938 C 72.847656 48.878906 73.140625 48.691406 73.351562 48.789062 C 73.558594 48.890625 73.601562 49.238281 73.445312 49.570312 " fill-opacity="1" fill-rule="nonzero"/><path fill="rgb(54.508972%, 84.709167%, 80.389404%)" d="M 75.1875 49.660156 C 75.03125 49.992188 74.738281 50.183594 74.527344 50.082031 C 74.320312 49.984375 74.277344 49.636719 74.433594 49.304688 C 74.589844 48.972656 74.886719 48.78125 75.09375 48.882812 C 75.300781 48.980469 75.34375 49.328125 75.1875 49.660156 " fill-opacity="1" fill-rule="nonzero"/><path fill="rgb(54.508972%, 84.709167%, 80.389404%)" d="M 74.75 48.195312 C 74.640625 48.433594 74.429688 48.566406 74.28125 48.496094 C 74.132812 48.425781 74.101562 48.179688 74.210938 47.941406 C 74.324219 47.703125 74.535156 47.570312 74.683594 47.640625 C 74.832031 47.710938 74.859375 47.960938 74.75 48.195312 " fill-opacity="1" fill-rule="nonzero"/><path fill="rgb(54.508972%, 84.709167%, 80.389404%)" d="M 75.964844 47.726562 C 75.855469 47.960938 75.644531 48.097656 75.496094 48.027344 C 75.347656 47.957031 75.316406 47.707031 75.429688 47.472656 C 75.539062 47.234375 75.75 47.097656 75.898438 47.171875 C 76.046875 47.242188 76.078125 47.488281 75.964844 47.726562 " fill-opacity="1" fill-rule="nonzero"/><path fill="rgb(54.508972%, 84.709167%, 80.389404%)" d="M 49.105469 51.953125 C 49.332031 52.4375 49.765625 52.710938 50.070312 52.566406 C 50.375 52.421875 50.4375 51.914062 50.207031 51.425781 C 49.980469 50.941406 49.546875 50.667969 49.242188 50.8125 C 48.9375 50.957031 48.875 51.464844 49.105469 51.953125 " fill-opacity="1" fill-rule="nonzero"/><path fill="rgb(54.508972%, 84.709167%, 80.389404%)" d="M 49.355469 48.28125 C 49.519531 48.628906 49.832031 48.828125 50.050781 48.726562 C 50.269531 48.621094 50.316406 48.253906 50.152344 47.902344 C 49.988281 47.554688 49.675781 47.355469 49.457031 47.460938 C 49.234375 47.5625 49.191406 47.929688 49.355469 48.28125 " fill-opacity="1" fill-rule="nonzero"/><path fill="rgb(54.508972%, 84.709167%, 80.389404%)" d="M 49.664062 49.875 C 49.820312 50.207031 50.117188 50.394531 50.324219 50.296875 C 50.535156 50.199219 50.578125 49.847656 50.421875 49.515625 C 50.265625 49.183594 49.96875 48.996094 49.761719 49.09375 C 49.550781 49.195312 49.507812 49.542969 49.664062 49.875 " fill-opacity="1" fill-rule="nonzero"/><path fill="rgb(54.508972%, 84.709167%, 80.389404%)" d="M 47.921875 49.964844 C 48.078125 50.296875 48.375 50.488281 48.582031 50.386719 C 48.792969 50.289062 48.835938 49.941406 48.679688 49.609375 C 48.523438 49.277344 48.226562 49.085938 48.019531 49.1875 C 47.808594 49.285156 47.765625 49.632812 47.921875 49.964844 " fill-opacity="1" fill-rule="nonzero"/><path fill="rgb(54.508972%, 84.709167%, 80.389404%)" d="M 48.363281 48.5 C 48.472656 48.738281 48.683594 48.871094 48.832031 48.800781 C 48.980469 48.730469 49.011719 48.484375 48.898438 48.246094 C 48.789062 48.007812 48.578125 47.875 48.429688 47.945312 C 48.28125 48.015625 48.25 48.265625 48.363281 48.5 " fill-opacity="1" fill-rule="nonzero"/><path fill="rgb(54.508972%, 84.709167%, 80.389404%)" d="M 47.144531 48.03125 C 47.257812 48.265625 47.46875 48.402344 47.617188 48.332031 C 47.765625 48.261719 47.792969 48.011719 47.683594 47.777344 C 47.574219 47.539062 47.363281 47.40625 47.214844 47.476562 C 47.0625 47.546875 47.035156 47.792969 47.144531 48.03125 " fill-opacity="1" fill-rule="nonzero"/><path fill="rgb(54.508972%, 84.709167%, 80.389404%)" d="M 65.726562 22.894531 C 65.191406 22.929688 64.742188 22.6875 64.71875 22.351562 C 64.695312 22.011719 65.105469 21.707031 65.640625 21.671875 C 66.171875 21.632812 66.625 21.875 66.648438 22.210938 C 66.671875 22.550781 66.257812 22.855469 65.726562 22.894531 " fill-opacity="1" fill-rule="nonzero"/><path fill="rgb(54.508972%, 84.709167%, 80.389404%)" d="M 60.9375 21.902344 C 60.9375 22.289062 60.742188 22.601562 60.5 22.601562 C 60.253906 22.601562 60.058594 22.289062 60.058594 21.902344 C 60.058594 21.515625 60.253906 21.199219 60.5 21.199219 C 60.742188 21.199219 60.9375 21.515625 60.9375 21.902344 " fill-opacity="1" fill-rule="nonzero"/><path fill="rgb(54.508972%, 84.709167%, 80.389404%)" d="M 58.875 21.667969 C 58.875 22.035156 58.6875 22.332031 58.457031 22.332031 C 58.226562 22.332031 58.039062 22.035156 58.039062 21.667969 C 58.039062 21.300781 58.226562 21 58.457031 21 C 58.6875 21 58.875 21.300781 58.875 21.667969 " fill-opacity="1" fill-rule="nonzero"/><path fill="rgb(54.508972%, 84.709167%, 80.389404%)" d="M 62.707031 23.191406 C 62.371094 23.34375 62.023438 23.296875 61.929688 23.085938 C 61.835938 22.875 62.027344 22.582031 62.359375 22.429688 C 62.691406 22.277344 63.039062 22.324219 63.136719 22.535156 C 63.230469 22.746094 63.039062 23.042969 62.707031 23.191406 " fill-opacity="1" fill-rule="nonzero"/><path fill="rgb(54.508972%, 84.709167%, 80.389404%)" d="M 61.929688 21.675781 C 61.929688 21.9375 61.796875 22.148438 61.632812 22.148438 C 61.46875 22.148438 61.335938 21.9375 61.335938 21.675781 C 61.335938 21.414062 61.46875 21.199219 61.632812 21.199219 C 61.796875 21.199219 61.929688 21.414062 61.929688 21.675781 " fill-opacity="1" fill-rule="nonzero"/><path fill="rgb(54.508972%, 84.709167%, 80.389404%)" d="M 62.605469 21.015625 C 62.351562 21.082031 62.113281 21.003906 62.074219 20.84375 C 62.035156 20.683594 62.207031 20.5 62.460938 20.4375 C 62.714844 20.375 62.949219 20.453125 62.988281 20.613281 C 63.03125 20.773438 62.855469 20.953125 62.605469 21.015625 " fill-opacity="1" fill-rule="nonzero"/><path fill="rgb(6.269836%, 5.879211%, 5.099487%)" d="M 73.023438 37.910156 C 72.847656 37.839844 72.644531 37.910156 72.566406 38.070312 C 71.9375 39.363281 69.292969 43.550781 61.503906 43.613281 C 53.714844 43.550781 51.070312 39.363281 50.441406 38.070312 C 50.363281 37.910156 50.160156 37.839844 49.984375 37.910156 C 49.8125 37.980469 49.734375 38.171875 49.8125 38.332031 C 50.476562 39.699219 53.25 44.117188 61.304688 44.25 C 61.316406 44.25 61.324219 44.25 61.335938 44.25 C 61.394531 44.25 61.449219 44.25 61.503906 44.25 C 61.558594 44.25 61.613281 44.25 61.671875 44.25 C 61.683594 44.25 61.695312 44.25 61.703125 44.25 C 69.757812 44.117188 72.53125 39.699219 73.199219 38.332031 C 73.273438 38.171875 73.199219 37.980469 73.023438 37.910156 " fill-opacity="1" fill-rule="nonzero"/></svg>
