<svg width="36" height="35" viewBox="0 0 36 35" fill="none" xmlns="http://www.w3.org/2000/svg">
<path fill-rule="evenodd" clip-rule="evenodd" d="M17.7219 8.35797e-06C33.3672 -0.0139728 37.3686 17.5173 19.7563 18.2885C21.0144 16.8926 21.9185 15.5886 22.5194 14.3837C24.3438 8.40011 13.6269 6.25878 10.2194 16.7086C3.98532 23.0796 10.2138 36.8764 23.4799 34.0599C21.6349 34.6818 19.7008 34.9993 17.7535 35C7.95947 35.0085 0.0104336 27.1794 0.00195991 17.5155C-0.00651376 7.85153 7.92778 0.00847064 17.7219 8.35797e-06Z" fill="url(#paint0_radial_414_3235)"/>
<path fill-rule="evenodd" clip-rule="evenodd" d="M9.85957 11.8103C7.90326 11.9869 5.9661 12.4597 4.04442 13.1834C11.5234 1.39283 27.476 4.40761 22.5181 14.3839C24.3425 8.40034 13.6256 6.25901 10.218 16.7088C3.984 23.0798 10.2125 36.8767 23.4786 34.0602C20.3441 35.1171 16.9776 35.2865 13.7526 34.5495C10.5276 33.8126 7.5699 32.198 5.20753 29.885C0.98801 23.2645 4.26179 15.0075 9.85957 11.8103Z" fill="url(#paint1_radial_414_3235)"/>
<path fill-rule="evenodd" clip-rule="evenodd" d="M19.7557 18.2885C36.0587 13.167 23.4856 -6.33272 7.12109 3.47875C10.1903 1.2154 13.906 -0.0040244 17.7213 9.97838e-06C33.3666 -0.0139712 37.368 17.5173 19.7557 18.2885Z" fill="url(#paint2_radial_414_3235)"/>
<path fill-rule="evenodd" clip-rule="evenodd" d="M10.9736 13.0371C6.23795 15.4308 2.78438 21.1764 3.8598 27.0238C2.29991 22.1536 4.07459 16.9393 7.39185 13.6861C8.56445 13.3655 9.76298 13.1483 10.9736 13.0371Z" fill="url(#paint3_radial_414_3235)"/>
<path fill-rule="evenodd" clip-rule="evenodd" d="M21.9838 7.35318C16.8023 3.99071 9.5743 7.88483 6.90546 12.2992C5.93379 12.5325 4.97801 12.8274 4.04395 13.1822C9.20625 5.04224 18.4101 3.95907 21.9838 7.35318Z" fill="url(#paint4_radial_414_3235)"/>
<path fill-rule="evenodd" clip-rule="evenodd" d="M18.6724 13.6279C11.5784 18.5084 18.1993 27.5204 27.4124 24.3128C31.6282 22.8459 36.1462 18.3579 33.6697 9.80957C34.8566 12.1943 35.4733 14.8215 35.4712 17.4845C35.4779 25.1723 30.4574 31.7055 23.4762 34.0599C10.2101 36.8764 3.98162 23.0795 10.2157 16.7085C11.987 14.898 14.7634 13.6868 18.6724 13.6279Z" fill="url(#paint5_radial_414_3235)"/>
<path fill-rule="evenodd" clip-rule="evenodd" d="M18.6727 13.6279C11.5788 18.5084 18.1997 27.5204 27.4128 24.3128C31.6286 22.8459 36.1465 18.3579 33.67 9.80957C38.7314 23.2845 27.9915 30.2445 19.7279 28.1882C20.3542 29.1816 21.1238 30.0756 22.0143 30.8921C11.1536 29.8641 8.68522 17.291 18.6727 13.6279Z" fill="url(#paint6_radial_414_3235)"/>
<path fill-rule="evenodd" clip-rule="evenodd" d="M33.248 22.8296C30.7479 26.9209 25.9275 28.9243 21.4476 28.4835C21.0532 27.9605 20.7035 27.4053 20.4023 26.8238C24.875 28.0206 30.1393 26.6785 33.248 22.8296Z" fill="url(#paint7_radial_414_3235)"/>
<path fill-rule="evenodd" clip-rule="evenodd" d="M18.6726 13.6279C9.99115 17.6056 12.184 27.7732 20.7663 29.5959C21.1551 30.0533 21.5724 30.4857 22.0157 30.8906C11.1535 29.8641 8.6851 17.291 18.6726 13.6279Z" fill="url(#paint8_radial_414_3235)"/>
<defs>
<radialGradient id="paint0_radial_414_3235" cx="0" cy="0" r="1" gradientUnits="userSpaceOnUse" gradientTransform="translate(51.5106 -6.80919) rotate(180) scale(91.7297 90.6994)">
<stop stop-color="white"/>
<stop offset="0.41" stop-color="#67CADB"/>
<stop offset="0.84" stop-color="#4066B0"/>
</radialGradient>
<radialGradient id="paint1_radial_414_3235" cx="0" cy="0" r="1" gradientUnits="userSpaceOnUse" gradientTransform="translate(-7775.73 75793.7) scale(59258.9 86453.7)">
<stop stop-color="white"/>
<stop offset="0.41" stop-color="#67CADB"/>
<stop offset="0.84" stop-color="#4066B0"/>
</radialGradient>
<radialGradient id="paint2_radial_414_3235" cx="0" cy="0" r="1" gradientUnits="userSpaceOnUse" gradientTransform="translate(-654.496 3118.92) scale(39666.1 29988)">
<stop stop-color="white"/>
<stop offset="0.41" stop-color="#67CADB"/>
<stop offset="0.84" stop-color="#4066B0"/>
</radialGradient>
<radialGradient id="paint3_radial_414_3235" cx="0" cy="0" r="1" gradientUnits="userSpaceOnUse" gradientTransform="translate(-15001.4 21433.5) scale(25980.3 47274.7)">
<stop stop-color="white"/>
<stop offset="0.41" stop-color="#67CADB"/>
<stop offset="0.84" stop-color="#4066B0"/>
</radialGradient>
<radialGradient id="paint4_radial_414_3235" cx="0" cy="0" r="1" gradientUnits="userSpaceOnUse" gradientTransform="translate(-38812.2 11443) scale(64185.2 27324.7)">
<stop stop-color="white"/>
<stop offset="0.41" stop-color="#67CADB"/>
<stop offset="0.84" stop-color="#4066B0"/>
</radialGradient>
<radialGradient id="paint5_radial_414_3235" cx="0" cy="0" r="1" gradientUnits="userSpaceOnUse" gradientTransform="translate(43648.4 8588.04) scale(78318.7 69655.9)">
<stop stop-color="white"/>
<stop offset="0.41" stop-color="#67CADB"/>
<stop offset="0.84" stop-color="#4066B0"/>
</radialGradient>
<radialGradient id="paint6_radial_414_3235" cx="0" cy="0" r="1" gradientUnits="userSpaceOnUse" gradientTransform="translate(-24932.3 45175.9) scale(66491.9 62030.2)">
<stop stop-color="white"/>
<stop offset="0.41" stop-color="#67CADB"/>
<stop offset="0.84" stop-color="#4066B0"/>
</radialGradient>
<radialGradient id="paint7_radial_414_3235" cx="0" cy="0" r="1" gradientUnits="userSpaceOnUse" gradientTransform="translate(4972.04 -1360.99) scale(22749 10118.8)">
<stop stop-color="white"/>
<stop offset="0.41" stop-color="#67CADB"/>
<stop offset="0.84" stop-color="#4066B0"/>
</radialGradient>
<radialGradient id="paint8_radial_414_3235" cx="0" cy="0" r="1" gradientUnits="userSpaceOnUse" gradientTransform="translate(-13934.2 5533.89) scale(26736.6 47875)">
<stop stop-color="white"/>
<stop offset="0.41" stop-color="#67CADB"/>
<stop offset="0.84" stop-color="#4066B0"/>
</radialGradient>
</defs>
</svg>
