<?xml version="1.0" encoding="UTF-8"?><svg xmlns="http://www.w3.org/2000/svg" xmlns:xlink="http://www.w3.org/1999/xlink" contentScriptType="text/ecmascript" width="150" zoomAndPan="magnify" contentStyleType="text/css" viewBox="0 0 150 149.999998" height="149.999998" preserveAspectRatio="xMidYMid meet" version="1.0"><defs><clipPath id="clip-0"><path d="M 60.015625 45.148438 L 78.734375 45.148438 L 78.734375 61.648438 L 60.015625 61.648438 Z M 60.015625 45.148438 " clip-rule="nonzero"/></clipPath></defs><path fill="rgb(61.569214%, 87.449646%, 91.369629%)" d="M 55.382812 90.066406 C 55.382812 90.066406 45.042969 76.472656 50.515625 67.332031 C 55.992188 58.1875 69.070312 57.578125 69.070312 57.578125 L 71.578125 67.632812 C 71.578125 67.632812 56.296875 77.769531 72.113281 89.769531 L 55.382812 90.066406 " fill-opacity="1" fill-rule="nonzero"/><path fill="rgb(86.268616%, 95.289612%, 97.24884%)" d="M 82.019531 64.765625 C 82.53125 64.710938 82.5625 64.230469 81.921875 64.347656 C 81.515625 64.421875 81.460938 64.828125 82.019531 64.765625 Z M 66.972656 71.648438 C 65.566406 71.824219 65.949219 72.796875 67.046875 72.574219 C 68.242188 72.332031 67.863281 71.53125 66.972656 71.648438 Z M 64.4375 70.398438 C 64.214844 70.417969 64.214844 70.640625 64.4375 70.609375 C 64.65625 70.578125 64.65625 70.378906 64.4375 70.398438 Z M 64.226562 69.621094 C 63.960938 69.566406 63.878906 69.9375 64.226562 69.9375 C 64.570312 69.9375 64.488281 69.671875 64.226562 69.621094 Z M 62.667969 70.0625 C 61.550781 70.351562 61.695312 71.195312 62.667969 71.125 C 63.640625 71.050781 63.074219 69.957031 62.667969 70.0625 Z M 50.828125 76.675781 C 49.136719 70.523438 53.421875 66.078125 53.421875 66.078125 C 50.59375 71.226562 50.828125 76.675781 50.828125 76.675781 " fill-opacity="1" fill-rule="nonzero"/><path fill="rgb(53.329468%, 84.309387%, 84.309387%)" d="M 82.730469 65.855469 C 82.515625 65.902344 82.542969 66.128906 82.757812 66.066406 C 82.96875 66.003906 82.945312 65.808594 82.730469 65.855469 Z M 73.15625 70.398438 C 72.941406 70.445312 72.972656 70.667969 73.183594 70.609375 C 73.398438 70.546875 73.371094 70.347656 73.15625 70.398438 Z M 82.839844 65 C 82.574219 65.050781 82.640625 65.425781 82.960938 65.296875 C 83.277344 65.167969 83.105469 64.953125 82.839844 65 Z M 73.746094 69.46875 C 73.480469 69.519531 73.542969 69.894531 73.863281 69.765625 C 74.183594 69.636719 74.011719 69.421875 73.746094 69.46875 Z M 59.054688 82.582031 C 59.054688 82.582031 59.476562 86.894531 61.738281 89.089844 C 61.738281 89.089844 58.488281 86.96875 59.054688 82.582031 " fill-opacity="1" fill-rule="nonzero"/><path fill="rgb(78.039551%, 92.939758%, 95.289612%)" d="M 81 66.390625 C 79.78125 66.472656 79.503906 67.496094 80.4375 67.664062 C 81.371094 67.828125 82.949219 66.253906 81 66.390625 Z M 69.644531 70.910156 C 69.242188 70.929688 69.191406 71.316406 69.699219 71.222656 C 70.210938 71.128906 70.046875 70.890625 69.644531 70.910156 Z M 71.824219 70.75 C 69.820312 71.007812 70.363281 72.390625 71.929688 72.074219 C 73.636719 71.730469 73.09375 70.589844 71.824219 70.75 Z M 64.488281 83.714844 C 61.59375 78.550781 64.488281 73.820312 64.488281 73.820312 C 60.394531 78.21875 64.488281 83.714844 64.488281 83.714844 Z M 50.515625 67.332031 C 50.515625 67.332031 51.886719 71.160156 56.707031 70.363281 C 61.167969 69.625 62.742188 68.082031 63 66.203125 C 63 66.203125 63.066406 70.804688 68.832031 70.734375 C 74.59375 70.664062 74.019531 65.539062 74.019531 65.539062 C 74.019531 65.539062 74.519531 67.652344 77.304688 66.703125 C 79.949219 65.800781 78.785156 63.894531 78.785156 63.894531 C 78.785156 63.894531 85.140625 61.671875 78.785156 57.578125 C 72.113281 53.28125 57.554688 55.917969 50.515625 67.332031 Z M 58.117188 84.609375 C 58.117188 84.609375 58.300781 87.050781 59.546875 88.320312 C 59.546875 88.320312 57.742188 87.078125 58.117188 84.609375 " fill-opacity="1" fill-rule="nonzero"/><path fill="rgb(25.878906%, 18.03894%, 18.818665%)" d="M 48.21875 90.632812 C 48.21875 90.632812 55.109375 94.640625 72.609375 95.710938 C 90.109375 96.78125 104.96875 90.792969 104.96875 90.792969 L 48.21875 90.632812 " fill-opacity="1" fill-rule="nonzero"/><path fill="rgb(48.629761%, 83.139038%, 89.7995%)" d="M 48.21875 90.632812 C 48.21875 90.632812 68.640625 87.105469 76.433594 87.105469 C 85.65625 87.105469 104.96875 90.792969 104.96875 90.792969 C 104.96875 90.792969 96.863281 94.480469 71.585938 94.480469 C 60.378906 94.480469 48.21875 90.632812 48.21875 90.632812 " fill-opacity="1" fill-rule="nonzero"/><path fill="rgb(83.529663%, 61.178589%, 45.489502%)" d="M 82.726562 90.632812 C 83.710938 90.632812 84.695312 92.007812 80.757812 92.503906 C 76.824219 92.996094 78.742188 94.066406 79.449219 94.351562 C 98.574219 93.699219 104.96875 90.792969 104.96875 90.792969 C 104.96875 90.792969 85.65625 87.105469 76.433594 87.105469 C 76.433594 87.105469 67.652344 90.632812 82.726562 90.632812 " fill-opacity="1" fill-rule="nonzero"/><path fill="rgb(70.588684%, 32.548523%, 17.248535%)" d="M 91.433594 90.230469 C 91.433594 90.230469 93.195312 85.097656 92.714844 80.285156 L 93.089844 79.960938 C 93.089844 79.960938 93.945312 80.980469 93.089844 90.445312 L 91.433594 90.230469 " fill-opacity="1" fill-rule="nonzero"/><path fill="rgb(45.878601%, 75.289917%, 17.248535%)" d="M 89.910156 75.023438 C 89.910156 75.023438 89.585938 77.378906 90.972656 78.875 C 90.972656 78.875 88.339844 79.125 87.839844 80.335938 C 87.839844 80.335938 90.261719 81.265625 91.433594 80.160156 C 91.433594 80.160156 90.9375 82.085938 91.648438 83.332031 C 91.648438 83.332031 92.964844 81.941406 92.964844 80.371094 C 92.964844 80.371094 93.25 80.941406 94.816406 81.371094 C 94.816406 81.371094 94.390625 80.335938 93.820312 79.765625 C 93.820312 79.765625 96.167969 80.050781 97.839844 79.019531 C 97.839844 79.019531 96.632812 77.625 94.175781 77.914062 C 94.175781 77.914062 94.316406 76.808594 93.855469 76.199219 C 93.855469 76.199219 92.863281 76.449219 92.453125 77.734375 C 92.453125 77.734375 92.152344 75.417969 89.910156 75.023438 " fill-opacity="1" fill-rule="nonzero"/><path fill="rgb(70.588684%, 32.548523%, 17.248535%)" d="M 96.027344 90.632812 C 96.027344 90.632812 95.707031 86.808594 97.519531 84.132812 L 97.839844 84.402344 C 97.839844 84.402344 96.238281 86.667969 97.253906 90.445312 L 96.027344 90.632812 " fill-opacity="1" fill-rule="nonzero"/><path fill="rgb(45.878601%, 75.289917%, 17.248535%)" d="M 100.617188 82.816406 C 100.617188 82.816406 99.832031 83.964844 98.738281 84.238281 C 98.738281 84.238281 100.046875 84.726562 100.136719 85.414062 C 100.136719 85.414062 98.773438 85.550781 98.328125 84.828125 C 98.328125 84.828125 98.714844 85.789062 98.179688 86.328125 C 98.179688 86.328125 97.625 85.917969 97.296875 84.976562 C 97.296875 84.976562 96.390625 85.238281 95.6875 85.203125 C 95.6875 85.203125 96.003906 84.257812 97.039062 83.964844 C 97.039062 83.964844 96.15625 83.847656 95.777344 83.136719 C 95.777344 83.136719 96.667969 83.066406 97.238281 83.304688 C 97.238281 83.304688 96.921875 82.15625 97.839844 81.601562 C 97.839844 81.601562 98.480469 82.691406 98.140625 83.453125 C 98.140625 83.453125 99.417969 82.707031 100.617188 82.816406 " fill-opacity="1" fill-rule="nonzero"/><g clip-path="url(#clip-0)"><path fill="rgb(36.859131%, 78.819275%, 78.42865%)" d="M 76.464844 56.882812 C 76.4375 56.878906 76.40625 56.875 76.382812 56.867188 C 76.308594 56.554688 76.664062 56.5 76.664062 56.289062 C 76.664062 55.917969 76.253906 56.5 76.101562 56.109375 C 76.105469 56.082031 76.109375 56.050781 76.113281 56.023438 C 76.148438 55.691406 76.171875 55.339844 76.191406 54.972656 C 77.933594 52.609375 78.972656 48.839844 78.6875 46.804688 C 78.699219 46.722656 78.597656 46.070312 78.605469 45.980469 C 78.625 45.53125 78.644531 45.1875 78.382812 45.148438 C 78.167969 45.121094 78.121094 45.382812 78.09375 45.726562 C 78.015625 45.382812 77.929688 45.144531 77.707031 45.175781 C 77.515625 45.203125 77.511719 45.417969 77.5625 45.707031 C 77.460938 45.453125 77.351562 45.296875 77.167969 45.34375 C 76.976562 45.398438 77 45.617188 77.085938 45.902344 C 76.914062 45.652344 76.761719 45.503906 76.585938 45.605469 C 76.355469 45.734375 76.5625 46.058594 76.800781 46.433594 C 76.875 46.546875 77.011719 46.761719 77.152344 47.277344 C 77.542969 49.226562 76.992188 51.316406 76.160156 52.929688 C 76.09375 52.335938 75.964844 51.792969 75.78125 51.292969 C 75.773438 51.269531 75.761719 51.242188 75.753906 51.214844 C 75.847656 50.945312 76.152344 50.945312 76.308594 50.734375 C 76.308594 50.679688 76.308594 50.574219 76.253906 50.574219 C 76 50.574219 75.640625 50.734375 75.449219 50.398438 C 75.457031 50.367188 75.46875 50.34375 75.484375 50.320312 C 75.632812 50.089844 75.964844 50.046875 76.050781 49.78125 C 75.816406 49.722656 75.597656 49.832031 75.390625 49.871094 C 75.367188 49.875 75.339844 49.878906 75.3125 49.878906 C 74.769531 49.78125 75.332031 49.148438 75.179688 48.988281 C 75.078125 48.828125 74.820312 49.253906 74.5 49.1875 C 74.488281 49.175781 74.476562 49.164062 74.464844 49.152344 C 74.019531 48.679688 73.519531 48.289062 72.988281 47.976562 C 72.960938 47.960938 72.9375 47.945312 72.910156 47.933594 C 72.621094 47.71875 73.183594 47.453125 73.082031 47.296875 C 72.925781 47.03125 72.414062 47.71875 72.242188 47.253906 C 72.242188 47.230469 72.242188 47.203125 72.242188 47.175781 C 72.25 46.992188 72.289062 46.792969 72.261719 46.609375 C 72.058594 46.632812 72.007812 46.804688 71.957031 46.980469 C 71.949219 47.007812 71.941406 47.039062 71.929688 47.066406 C 71.648438 47.242188 71.597656 46.765625 71.492188 46.609375 C 71.441406 46.554688 71.339844 46.554688 71.289062 46.660156 C 71.238281 46.820312 71.390625 47.136719 71.113281 47.191406 C 71.082031 47.183594 71.050781 47.175781 71.019531 47.167969 C 70.414062 47.011719 69.820312 46.941406 69.28125 46.941406 C 69.277344 46.941406 69.277344 46.941406 69.277344 46.941406 C 68.054688 46.941406 66.539062 47.316406 65.234375 48.1875 C 65.222656 48.199219 65.207031 48.207031 65.195312 48.214844 C 65.195312 48.246094 65.144531 48.300781 65.09375 48.246094 C 64.992188 48.089844 65.042969 47.824219 64.941406 47.824219 C 64.582031 47.773438 64.789062 48.355469 64.53125 48.511719 C 64.480469 48.511719 64.429688 48.40625 64.433594 48.304688 C 64.417969 48.269531 64.402344 48.246094 64.378906 48.246094 C 64.019531 48.246094 64.328125 48.828125 63.964844 48.933594 C 63.9375 48.925781 63.914062 48.914062 63.886719 48.902344 C 63.707031 48.816406 63.546875 48.707031 63.457031 48.828125 C 63.304688 49.042969 63.96875 49.148438 63.75 49.546875 C 63.742188 49.5625 63.730469 49.574219 63.71875 49.585938 C 63.132812 50.339844 62.6875 51.269531 62.476562 52.398438 C 62.472656 52.417969 62.46875 52.4375 62.464844 52.457031 C 62.453125 52.5 62.4375 52.539062 62.417969 52.578125 C 61.683594 51.019531 61.234375 49.085938 61.597656 47.277344 C 61.738281 46.761719 61.875 46.546875 61.949219 46.433594 C 62.1875 46.058594 62.394531 45.734375 62.164062 45.605469 C 61.988281 45.503906 61.835938 45.652344 61.664062 45.902344 C 61.75 45.617188 61.773438 45.398438 61.582031 45.34375 C 61.398438 45.296875 61.289062 45.453125 61.1875 45.707031 C 61.238281 45.417969 61.234375 45.203125 61.042969 45.175781 C 60.820312 45.144531 60.734375 45.382812 60.65625 45.726562 C 60.632812 45.382812 60.582031 45.121094 60.367188 45.148438 C 60.105469 45.1875 60.125 45.53125 60.144531 45.980469 C 60.152344 46.070312 60.050781 46.722656 60.0625 46.804688 C 59.808594 48.636719 60.625 51.878906 62.0625 54.234375 C 61.921875 54.441406 61.808594 54.636719 61.972656 54.859375 C 62.066406 55.011719 62.164062 54.691406 62.304688 54.609375 C 62.3125 54.621094 62.320312 54.636719 62.332031 54.648438 C 62.332031 54.65625 62.332031 54.660156 62.332031 54.667969 C 62.335938 54.683594 62.34375 54.691406 62.355469 54.683594 C 62.355469 54.683594 62.355469 54.6875 62.355469 54.6875 C 62.378906 55.179688 61.714844 55.285156 61.816406 55.652344 C 61.871094 55.8125 62.226562 55.441406 62.417969 55.707031 C 62.417969 55.726562 62.421875 55.742188 62.421875 55.761719 C 62.492188 56.539062 62.601562 57.234375 62.746094 57.851562 C 62.75 57.878906 62.757812 57.90625 62.757812 57.933594 C 62.277344 57.980469 62.382812 58.40625 62.605469 58.671875 C 62.585938 58.691406 62.566406 58.707031 62.542969 58.722656 C 62.429688 58.804688 62.339844 58.875 62.382812 58.988281 C 62.433594 59.09375 62.546875 59.078125 62.683594 59.058594 C 62.710938 59.054688 62.738281 59.050781 62.761719 59.050781 C 62.996094 59.304688 62.636719 59.621094 62.84375 59.78125 C 62.996094 59.9375 63.046875 59.410156 63.300781 59.582031 C 63.308594 59.601562 63.316406 59.621094 63.328125 59.640625 C 63.859375 60.832031 64.511719 61.457031 65.039062 61.597656 C 66.125 61.886719 66.796875 60.941406 66.898438 59.722656 C 66.949219 59.113281 67.210938 58.574219 67.65625 58.347656 C 68.207031 58.0625 69.226562 58.042969 69.28125 58.039062 C 69.332031 58.042969 70.355469 58.0625 70.90625 58.347656 C 71.351562 58.574219 71.609375 59.113281 71.660156 59.722656 C 71.765625 60.941406 72.433594 61.886719 73.519531 61.597656 C 74.253906 61.402344 75.234375 60.265625 75.785156 57.96875 C 75.792969 57.945312 75.796875 57.921875 75.804688 57.898438 C 76.152344 57.613281 76.308594 58.351562 76.460938 58.035156 C 76.613281 57.824219 76.101562 57.613281 76.222656 57.234375 C 76.246094 57.230469 76.277344 57.226562 76.304688 57.222656 C 76.507812 57.210938 76.707031 57.238281 76.765625 57.082031 C 76.792969 56.921875 76.640625 56.910156 76.464844 56.882812 " fill-opacity="1" fill-rule="nonzero"/></g><path fill="rgb(93.328857%, 16.079712%, 20.779419%)" d="M 74.410156 52.25 C 74.410156 53.132812 73.71875 53.847656 72.867188 53.847656 C 72.015625 53.847656 71.324219 53.132812 71.324219 52.25 C 71.324219 51.371094 72.015625 50.65625 72.867188 50.65625 C 73.71875 50.65625 74.410156 51.371094 74.410156 52.25 " fill-opacity="1" fill-rule="nonzero"/><path fill="rgb(6.269836%, 5.879211%, 5.099487%)" d="M 73.914062 52.453125 C 73.914062 52.957031 73.515625 53.367188 73.027344 53.367188 C 72.539062 53.367188 72.144531 52.957031 72.144531 52.453125 C 72.144531 51.949219 72.539062 51.539062 73.027344 51.539062 C 73.515625 51.539062 73.914062 51.949219 73.914062 52.453125 " fill-opacity="1" fill-rule="nonzero"/><path fill="rgb(100%, 100%, 100%)" d="M 72.800781 51.769531 C 72.800781 51.980469 72.636719 52.152344 72.429688 52.152344 C 72.226562 52.152344 72.0625 51.980469 72.0625 51.769531 C 72.0625 51.558594 72.226562 51.390625 72.429688 51.390625 C 72.636719 51.390625 72.800781 51.558594 72.800781 51.769531 " fill-opacity="1" fill-rule="nonzero"/><path fill="rgb(100%, 100%, 100%)" d="M 73.832031 53.136719 C 73.832031 53.265625 73.734375 53.367188 73.609375 53.367188 C 73.488281 53.367188 73.386719 53.265625 73.386719 53.136719 C 73.386719 53.007812 73.488281 52.90625 73.609375 52.90625 C 73.734375 52.90625 73.832031 53.007812 73.832031 53.136719 " fill-opacity="1" fill-rule="nonzero"/><path fill="rgb(93.328857%, 16.079712%, 20.779419%)" d="M 67.25 52.269531 C 67.25 53.148438 66.558594 53.863281 65.707031 53.863281 C 64.855469 53.863281 64.164062 53.148438 64.164062 52.269531 C 64.164062 51.386719 64.855469 50.671875 65.707031 50.671875 C 66.558594 50.671875 67.25 51.386719 67.25 52.269531 " fill-opacity="1" fill-rule="nonzero"/><path fill="rgb(6.269836%, 5.879211%, 5.099487%)" d="M 66.753906 52.472656 C 66.753906 52.976562 66.355469 53.386719 65.867188 53.386719 C 65.378906 53.386719 64.984375 52.976562 64.984375 52.472656 C 64.984375 51.964844 65.378906 51.558594 65.867188 51.558594 C 66.355469 51.558594 66.753906 51.964844 66.753906 52.472656 " fill-opacity="1" fill-rule="nonzero"/><path fill="rgb(100%, 100%, 100%)" d="M 65.640625 51.789062 C 65.640625 52 65.476562 52.167969 65.269531 52.167969 C 65.066406 52.167969 64.902344 52 64.902344 51.789062 C 64.902344 51.578125 65.066406 51.40625 65.269531 51.40625 C 65.476562 51.40625 65.640625 51.578125 65.640625 51.789062 " fill-opacity="1" fill-rule="nonzero"/><path fill="rgb(100%, 100%, 100%)" d="M 66.671875 53.15625 C 66.671875 53.28125 66.574219 53.386719 66.449219 53.386719 C 66.328125 53.386719 66.226562 53.28125 66.226562 53.15625 C 66.226562 53.027344 66.328125 52.921875 66.449219 52.921875 C 66.574219 52.921875 66.671875 53.027344 66.671875 53.15625 " fill-opacity="1" fill-rule="nonzero"/><path fill="rgb(100%, 100%, 100%)" d="M 67.164062 55.289062 C 66.839844 55.210938 66.527344 55.964844 66.25 56.300781 C 65.949219 56.660156 67.402344 56.941406 67.394531 56.726562 C 67.363281 56.136719 67.507812 55.375 67.164062 55.289062 " fill-opacity="1" fill-rule="nonzero"/><path fill="rgb(54.508972%, 84.709167%, 80.389404%)" d="M 74.332031 60.359375 C 74.242188 60.5625 74.066406 60.675781 73.941406 60.617188 C 73.820312 60.554688 73.796875 60.34375 73.886719 60.140625 C 73.980469 59.941406 74.152344 59.828125 74.277344 59.886719 C 74.398438 59.945312 74.425781 60.160156 74.332031 60.359375 " fill-opacity="1" fill-rule="nonzero"/><path fill="rgb(54.508972%, 84.709167%, 80.389404%)" d="M 74.230469 58.835938 C 74.164062 58.980469 74.039062 59.0625 73.949219 59.019531 C 73.863281 58.976562 73.84375 58.824219 73.910156 58.679688 C 73.976562 58.535156 74.101562 58.453125 74.191406 58.496094 C 74.28125 58.539062 74.296875 58.691406 74.230469 58.835938 " fill-opacity="1" fill-rule="nonzero"/><path fill="rgb(54.508972%, 84.709167%, 80.389404%)" d="M 74.105469 59.5 C 74.042969 59.636719 73.921875 59.714844 73.839844 59.671875 C 73.753906 59.632812 73.738281 59.488281 73.800781 59.347656 C 73.863281 59.210938 73.984375 59.132812 74.066406 59.175781 C 74.152344 59.214844 74.167969 59.359375 74.105469 59.5 " fill-opacity="1" fill-rule="nonzero"/><path fill="rgb(54.508972%, 84.709167%, 80.389404%)" d="M 74.808594 59.535156 C 74.746094 59.671875 74.625 59.753906 74.542969 59.710938 C 74.457031 59.671875 74.441406 59.523438 74.503906 59.386719 C 74.566406 59.25 74.6875 59.171875 74.769531 59.210938 C 74.855469 59.253906 74.871094 59.398438 74.808594 59.535156 " fill-opacity="1" fill-rule="nonzero"/><path fill="rgb(54.508972%, 84.709167%, 80.389404%)" d="M 74.632812 58.929688 C 74.585938 59.027344 74.503906 59.082031 74.441406 59.050781 C 74.382812 59.023438 74.371094 58.921875 74.414062 58.820312 C 74.460938 58.722656 74.542969 58.667969 74.605469 58.695312 C 74.664062 58.726562 74.675781 58.828125 74.632812 58.929688 " fill-opacity="1" fill-rule="nonzero"/><path fill="rgb(54.508972%, 84.709167%, 80.389404%)" d="M 75.121094 58.730469 C 75.078125 58.832031 74.992188 58.886719 74.933594 58.855469 C 74.871094 58.828125 74.859375 58.726562 74.90625 58.625 C 74.949219 58.527344 75.035156 58.472656 75.09375 58.5 C 75.15625 58.53125 75.167969 58.632812 75.121094 58.730469 " fill-opacity="1" fill-rule="nonzero"/><path fill="rgb(54.508972%, 84.709167%, 80.389404%)" d="M 64.285156 60.488281 C 64.378906 60.6875 64.554688 60.800781 64.675781 60.742188 C 64.800781 60.683594 64.824219 60.46875 64.730469 60.269531 C 64.640625 60.066406 64.464844 59.953125 64.34375 60.011719 C 64.21875 60.074219 64.195312 60.285156 64.285156 60.488281 " fill-opacity="1" fill-rule="nonzero"/><path fill="rgb(54.508972%, 84.709167%, 80.389404%)" d="M 64.386719 58.960938 C 64.453125 59.109375 64.582031 59.191406 64.667969 59.148438 C 64.757812 59.105469 64.773438 58.953125 64.707031 58.804688 C 64.644531 58.660156 64.515625 58.578125 64.429688 58.621094 C 64.339844 58.664062 64.320312 58.816406 64.386719 58.960938 " fill-opacity="1" fill-rule="nonzero"/><path fill="rgb(54.508972%, 84.709167%, 80.389404%)" d="M 64.511719 59.625 C 64.578125 59.761719 64.695312 59.839844 64.78125 59.800781 C 64.863281 59.757812 64.882812 59.613281 64.816406 59.476562 C 64.753906 59.339844 64.636719 59.257812 64.550781 59.300781 C 64.46875 59.34375 64.449219 59.488281 64.511719 59.625 " fill-opacity="1" fill-rule="nonzero"/><path fill="rgb(54.508972%, 84.709167%, 80.389404%)" d="M 63.808594 59.664062 C 63.875 59.800781 63.992188 59.878906 64.078125 59.835938 C 64.160156 59.796875 64.179688 59.652344 64.113281 59.515625 C 64.050781 59.375 63.933594 59.296875 63.847656 59.339844 C 63.765625 59.378906 63.746094 59.523438 63.808594 59.664062 " fill-opacity="1" fill-rule="nonzero"/><path fill="rgb(54.508972%, 84.709167%, 80.389404%)" d="M 63.988281 59.054688 C 64.03125 59.152344 64.117188 59.207031 64.175781 59.179688 C 64.238281 59.148438 64.25 59.046875 64.203125 58.949219 C 64.160156 58.851562 64.074219 58.792969 64.015625 58.824219 C 63.953125 58.851562 63.941406 58.957031 63.988281 59.054688 " fill-opacity="1" fill-rule="nonzero"/><path fill="rgb(54.508972%, 84.709167%, 80.389404%)" d="M 63.496094 58.859375 C 63.542969 58.957031 63.625 59.011719 63.6875 58.984375 C 63.746094 58.953125 63.757812 58.851562 63.714844 58.753906 C 63.667969 58.65625 63.585938 58.597656 63.523438 58.628906 C 63.464844 58.65625 63.453125 58.761719 63.496094 58.859375 " fill-opacity="1" fill-rule="nonzero"/><path fill="rgb(54.508972%, 84.709167%, 80.389404%)" d="M 70.992188 48.425781 C 70.777344 48.441406 70.59375 48.339844 70.585938 48.199219 C 70.574219 48.058594 70.742188 47.933594 70.957031 47.917969 C 71.171875 47.902344 71.355469 48 71.363281 48.140625 C 71.375 48.28125 71.207031 48.410156 70.992188 48.425781 " fill-opacity="1" fill-rule="nonzero"/><path fill="rgb(54.508972%, 84.709167%, 80.389404%)" d="M 69.058594 48.011719 C 69.058594 48.171875 68.980469 48.304688 68.882812 48.304688 C 68.785156 48.304688 68.707031 48.171875 68.707031 48.011719 C 68.707031 47.851562 68.785156 47.722656 68.882812 47.722656 C 68.980469 47.722656 69.058594 47.851562 69.058594 48.011719 " fill-opacity="1" fill-rule="nonzero"/><path fill="rgb(54.508972%, 84.709167%, 80.389404%)" d="M 68.226562 47.914062 C 68.226562 48.066406 68.152344 48.191406 68.058594 48.191406 C 67.964844 48.191406 67.890625 48.066406 67.890625 47.914062 C 67.890625 47.761719 67.964844 47.640625 68.058594 47.640625 C 68.152344 47.640625 68.226562 47.761719 68.226562 47.914062 " fill-opacity="1" fill-rule="nonzero"/><path fill="rgb(54.508972%, 84.709167%, 80.389404%)" d="M 69.773438 48.550781 C 69.640625 48.613281 69.5 48.59375 69.460938 48.503906 C 69.421875 48.417969 69.5 48.296875 69.632812 48.230469 C 69.769531 48.167969 69.910156 48.1875 69.945312 48.277344 C 69.984375 48.363281 69.90625 48.484375 69.773438 48.550781 " fill-opacity="1" fill-rule="nonzero"/><path fill="rgb(54.508972%, 84.709167%, 80.389404%)" d="M 69.460938 47.917969 C 69.460938 48.027344 69.40625 48.113281 69.339844 48.113281 C 69.273438 48.113281 69.21875 48.027344 69.21875 47.917969 C 69.21875 47.808594 69.273438 47.722656 69.339844 47.722656 C 69.40625 47.722656 69.460938 47.808594 69.460938 47.917969 " fill-opacity="1" fill-rule="nonzero"/><path fill="rgb(54.508972%, 84.709167%, 80.389404%)" d="M 69.734375 47.644531 C 69.628906 47.671875 69.535156 47.640625 69.519531 47.574219 C 69.503906 47.507812 69.574219 47.429688 69.675781 47.40625 C 69.777344 47.378906 69.871094 47.410156 69.886719 47.476562 C 69.902344 47.542969 69.835938 47.621094 69.734375 47.644531 " fill-opacity="1" fill-rule="nonzero"/><path fill="rgb(6.269836%, 5.879211%, 5.099487%)" d="M 73.933594 54.65625 C 73.863281 54.628906 73.78125 54.65625 73.75 54.726562 C 73.5 55.261719 72.429688 57 69.289062 57.023438 C 66.148438 57 65.078125 55.261719 64.828125 54.726562 C 64.796875 54.65625 64.710938 54.628906 64.640625 54.65625 C 64.570312 54.6875 64.539062 54.765625 64.570312 54.832031 C 64.839844 55.402344 65.960938 57.234375 69.207031 57.289062 C 69.210938 57.289062 69.214844 57.289062 69.222656 57.289062 C 69.246094 57.289062 69.265625 57.289062 69.289062 57.289062 C 69.3125 57.289062 69.332031 57.289062 69.355469 57.289062 C 69.359375 57.289062 69.367188 57.289062 69.371094 57.289062 C 72.617188 57.234375 73.738281 55.402344 74.003906 54.832031 C 74.039062 54.765625 74.003906 54.6875 73.933594 54.65625 " fill-opacity="1" fill-rule="nonzero"/></svg>