<?xml version="1.0" encoding="UTF-8"?><svg xmlns="http://www.w3.org/2000/svg" xmlns:xlink="http://www.w3.org/1999/xlink" contentScriptType="text/ecmascript" width="150" zoomAndPan="magnify" contentStyleType="text/css" viewBox="0 0 150 149.999998" height="149.999998" preserveAspectRatio="xMidYMid meet" version="1.0"><defs><clipPath id="clip-0"><path d="M 2 125 L 148.699219 125 L 148.699219 139 L 2 139 Z M 2 125 " clip-rule="nonzero"/></clipPath><clipPath id="clip-1"><path d="M 2 116 L 148.699219 116 L 148.699219 136 L 2 136 Z M 2 116 " clip-rule="nonzero"/></clipPath><clipPath id="clip-2"><path d="M 68 116 L 148.699219 116 L 148.699219 136 L 68 136 Z M 68 116 " clip-rule="nonzero"/></clipPath><clipPath id="clip-3"><path d="M 36.476562 8.695312 L 85.871094 8.695312 L 85.871094 50.695312 L 36.476562 50.695312 Z M 36.476562 8.695312 " clip-rule="nonzero"/></clipPath></defs><path fill="rgb(61.569214%, 87.449646%, 91.369629%)" d="M 20.933594 124.105469 C 20.933594 124.105469 -5.703125 89.191406 8.398438 65.707031 C 22.5 42.21875 56.179688 40.652344 56.179688 40.652344 L 62.640625 66.480469 C 62.640625 66.480469 23.28125 92.515625 64.015625 123.34375 L 20.933594 124.105469 " fill-opacity="1" fill-rule="nonzero"/><path fill="rgb(86.268616%, 95.289612%, 97.24884%)" d="M 89.527344 59.117188 C 90.847656 58.972656 90.925781 57.738281 89.273438 58.046875 C 88.226562 58.238281 88.085938 59.277344 89.527344 59.117188 Z M 50.777344 76.792969 C 47.160156 77.25 48.136719 79.742188 50.964844 79.175781 C 54.046875 78.554688 53.066406 76.5 50.777344 76.792969 Z M 44.246094 73.582031 C 43.679688 73.632812 43.679688 74.210938 44.246094 74.128906 C 44.808594 74.042969 44.808594 73.53125 44.246094 73.582031 Z M 43.699219 71.585938 C 43.019531 71.453125 42.8125 72.40625 43.699219 72.40625 C 44.585938 72.40625 44.382812 71.722656 43.699219 71.585938 Z M 39.695312 72.722656 C 36.816406 73.464844 37.191406 75.628906 39.695312 75.449219 C 42.199219 75.265625 40.734375 72.453125 39.695312 72.722656 Z M 9.203125 89.710938 C 4.839844 73.902344 15.882812 62.480469 15.882812 62.480469 C 8.601562 75.714844 9.203125 89.710938 9.203125 89.710938 " fill-opacity="1" fill-rule="nonzero"/><path fill="rgb(53.329468%, 84.309387%, 84.309387%)" d="M 91.351562 61.914062 C 90.796875 62.039062 90.875 62.613281 91.421875 62.457031 C 91.972656 62.300781 91.90625 61.789062 91.351562 61.914062 Z M 66.703125 73.582031 C 66.148438 73.707031 66.222656 74.28125 66.773438 74.125 C 67.324219 73.96875 67.257812 73.460938 66.703125 73.582031 Z M 91.644531 59.722656 C 90.957031 59.847656 91.125 60.808594 91.945312 60.480469 C 92.769531 60.152344 92.324219 59.59375 91.644531 59.722656 Z M 68.21875 71.199219 C 67.535156 71.328125 67.699219 72.289062 68.523438 71.957031 C 69.34375 71.628906 68.902344 71.074219 68.21875 71.199219 Z M 30.382812 104.882812 C 30.382812 104.882812 31.472656 115.96875 37.292969 121.601562 C 37.292969 121.601562 28.929688 116.148438 30.382812 104.882812 " fill-opacity="1" fill-rule="nonzero"/><path fill="rgb(78.039551%, 92.939758%, 95.289612%)" d="M 86.902344 63.285156 C 83.761719 63.503906 83.050781 66.128906 85.453125 66.554688 C 87.855469 66.984375 91.917969 62.9375 86.902344 63.285156 Z M 57.652344 74.894531 C 56.617188 74.945312 56.488281 75.9375 57.800781 75.699219 C 59.113281 75.460938 58.6875 74.847656 57.652344 74.894531 Z M 63.273438 74.492188 C 58.113281 75.144531 59.507812 78.703125 63.539062 77.890625 C 67.9375 77.003906 66.539062 74.074219 63.273438 74.492188 Z M 44.382812 107.792969 C 36.929688 94.527344 44.382812 82.382812 44.382812 82.382812 C 33.835938 93.675781 44.382812 107.792969 44.382812 107.792969 Z M 8.398438 65.707031 C 8.398438 65.707031 11.929688 75.539062 24.339844 73.496094 C 35.824219 71.601562 39.882812 67.636719 40.542969 62.808594 C 40.542969 62.808594 40.722656 74.625 55.5625 74.449219 C 70.40625 74.273438 68.925781 61.105469 68.925781 61.105469 C 68.925781 61.105469 70.210938 66.527344 77.378906 64.089844 C 84.195312 61.773438 81.195312 56.878906 81.195312 56.878906 C 81.195312 56.878906 97.558594 51.167969 81.195312 40.652344 C 64.015625 29.613281 26.519531 36.390625 8.398438 65.707031 Z M 27.976562 110.09375 C 27.976562 110.09375 28.441406 116.367188 31.648438 119.625 C 31.648438 119.625 27 116.433594 27.976562 110.09375 " fill-opacity="1" fill-rule="nonzero"/><g clip-path="url(#clip-0)"><path fill="rgb(25.878906%, 18.03894%, 18.818665%)" d="M 2.484375 125.566406 C 2.484375 125.566406 20.226562 135.867188 65.296875 138.613281 C 110.363281 141.359375 148.625 125.976562 148.625 125.976562 L 2.484375 125.566406 " fill-opacity="1" fill-rule="nonzero"/></g><g clip-path="url(#clip-1)"><path fill="rgb(48.629761%, 83.139038%, 89.7995%)" d="M 2.484375 125.566406 C 2.484375 125.566406 55.074219 116.503906 75.140625 116.503906 C 98.886719 116.503906 148.625 125.976562 148.625 125.976562 C 148.625 125.976562 127.746094 135.453125 62.660156 135.453125 C 33.800781 135.453125 2.484375 125.566406 2.484375 125.566406 " fill-opacity="1" fill-rule="nonzero"/></g><g clip-path="url(#clip-2)"><path fill="rgb(83.529663%, 61.178589%, 45.489502%)" d="M 91.347656 125.566406 C 93.882812 125.566406 96.417969 129.101562 86.277344 130.371094 C 76.140625 131.636719 81.082031 134.382812 82.90625 135.121094 C 132.160156 133.445312 148.625 125.976562 148.625 125.976562 C 148.625 125.976562 98.886719 116.503906 75.140625 116.503906 C 75.140625 116.503906 52.523438 125.566406 91.347656 125.566406 " fill-opacity="1" fill-rule="nonzero"/></g><path fill="rgb(70.588684%, 32.548523%, 17.248535%)" d="M 113.773438 124.535156 C 113.773438 124.535156 118.308594 111.347656 117.074219 98.980469 L 118.035156 98.15625 C 118.035156 98.15625 120.234375 100.765625 118.035156 125.085938 L 113.773438 124.535156 " fill-opacity="1" fill-rule="nonzero"/><path fill="rgb(45.878601%, 75.289917%, 17.248535%)" d="M 109.84375 85.46875 C 109.84375 85.46875 109.007812 91.515625 112.582031 95.363281 C 112.582031 95.363281 105.800781 96.003906 104.515625 99.117188 C 104.515625 99.117188 110.75 101.5 113.773438 98.660156 C 113.773438 98.660156 112.488281 103.605469 114.324219 106.8125 C 114.324219 106.8125 117.714844 103.238281 117.714844 99.210938 C 117.714844 99.210938 118.445312 100.675781 122.480469 101.773438 C 122.480469 101.773438 121.378906 99.117188 119.914062 97.652344 C 119.914062 97.652344 125.960938 98.382812 130.269531 95.726562 C 130.269531 95.726562 127.152344 92.15625 120.832031 92.886719 C 120.832031 92.886719 121.195312 90.046875 120.003906 88.492188 C 120.003906 88.492188 117.453125 89.132812 116.394531 92.429688 C 116.394531 92.429688 115.625 86.476562 109.84375 85.46875 " fill-opacity="1" fill-rule="nonzero"/><path fill="rgb(70.588684%, 32.548523%, 17.248535%)" d="M 125.59375 125.566406 C 125.59375 125.566406 124.773438 115.742188 129.445312 108.871094 L 130.269531 109.558594 C 130.269531 109.558594 126.144531 115.375 128.757812 125.085938 L 125.59375 125.566406 " fill-opacity="1" fill-rule="nonzero"/><path fill="rgb(45.878601%, 75.289917%, 17.248535%)" d="M 137.417969 105.484375 C 137.417969 105.484375 135.402344 108.4375 132.585938 109.136719 C 132.585938 109.136719 135.953125 110.394531 136.179688 112.160156 C 136.179688 112.160156 132.675781 112.515625 131.523438 110.652344 C 131.523438 110.652344 132.515625 113.125 131.140625 114.503906 C 131.140625 114.503906 129.710938 113.460938 128.863281 111.039062 C 128.863281 111.039062 126.53125 111.710938 124.726562 111.621094 C 124.726562 111.621094 125.539062 109.195312 128.207031 108.4375 C 128.207031 108.4375 125.925781 108.140625 124.953125 106.308594 C 124.953125 106.308594 127.246094 106.125 128.722656 106.742188 C 128.722656 106.742188 127.90625 103.789062 130.269531 102.371094 C 130.269531 102.371094 131.917969 105.164062 131.046875 107.117188 C 131.046875 107.117188 134.332031 105.203125 137.417969 105.484375 " fill-opacity="1" fill-rule="nonzero"/><g clip-path="url(#clip-3)"><path fill="rgb(36.859131%, 78.819275%, 78.42865%)" d="M 79.886719 38.570312 C 79.8125 38.558594 79.734375 38.546875 79.667969 38.523438 C 79.46875 37.726562 80.414062 37.59375 80.414062 37.054688 C 80.414062 36.113281 79.332031 37.59375 78.929688 36.601562 C 78.9375 36.527344 78.945312 36.453125 78.953125 36.378906 C 79.042969 35.527344 79.113281 34.640625 79.160156 33.707031 C 83.757812 27.6875 86.496094 18.089844 85.75 12.914062 C 85.785156 12.707031 85.519531 11.046875 85.53125 10.816406 C 85.589844 9.667969 85.636719 8.792969 84.949219 8.703125 C 84.382812 8.625 84.25 9.289062 84.1875 10.171875 C 83.976562 9.296875 83.753906 8.6875 83.167969 8.769531 C 82.660156 8.839844 82.648438 9.386719 82.777344 10.117188 C 82.511719 9.472656 82.226562 9.070312 81.742188 9.199219 C 81.238281 9.328125 81.296875 9.886719 81.519531 10.613281 C 81.070312 9.980469 80.671875 9.597656 80.199219 9.855469 C 79.59375 10.1875 80.140625 11.011719 80.773438 11.96875 C 80.964844 12.257812 81.324219 12.804688 81.699219 14.117188 C 82.730469 19.078125 81.273438 24.398438 79.085938 28.503906 C 78.90625 26.992188 78.5625 25.605469 78.085938 24.34375 C 78.058594 24.273438 78.03125 24.207031 78.011719 24.136719 C 78.25 23.453125 79.0625 23.453125 79.46875 22.914062 C 79.46875 22.78125 79.46875 22.511719 79.332031 22.511719 C 78.65625 22.511719 77.710938 22.914062 77.207031 22.058594 C 77.222656 21.984375 77.257812 21.921875 77.296875 21.863281 C 77.683594 21.277344 78.566406 21.164062 78.792969 20.492188 C 78.171875 20.335938 77.601562 20.625 77.050781 20.714844 C 76.984375 20.726562 76.917969 20.734375 76.847656 20.738281 C 75.414062 20.492188 76.898438 18.875 76.496094 18.472656 C 76.222656 18.066406 75.550781 19.144531 74.703125 18.980469 C 74.671875 18.949219 74.640625 18.917969 74.609375 18.886719 C 73.433594 17.683594 72.105469 16.691406 70.707031 15.894531 C 70.640625 15.859375 70.574219 15.820312 70.507812 15.785156 C 69.738281 15.238281 71.226562 14.566406 70.957031 14.164062 C 70.550781 13.488281 69.199219 15.238281 68.738281 14.058594 C 68.734375 13.992188 68.738281 13.925781 68.738281 13.859375 C 68.761719 13.386719 68.859375 12.882812 68.792969 12.410156 C 68.253906 12.480469 68.117188 12.917969 67.988281 13.359375 C 67.964844 13.433594 67.941406 13.503906 67.917969 13.578125 C 67.171875 14.027344 67.039062 12.816406 66.765625 12.410156 C 66.632812 12.277344 66.363281 12.277344 66.226562 12.546875 C 66.089844 12.949219 66.496094 13.757812 65.757812 13.898438 C 65.679688 13.878906 65.597656 13.859375 65.519531 13.839844 C 63.914062 13.441406 62.347656 13.257812 60.929688 13.257812 C 60.929688 13.257812 60.925781 13.257812 60.925781 13.257812 C 60.921875 13.257812 60.917969 13.257812 60.917969 13.257812 C 57.691406 13.257812 53.6875 14.21875 50.25 16.4375 C 50.210938 16.460938 50.175781 16.484375 50.140625 16.507812 C 50.148438 16.585938 50.015625 16.722656 49.878906 16.585938 C 49.609375 16.183594 49.742188 15.507812 49.472656 15.507812 C 48.527344 15.375 49.070312 16.855469 48.394531 17.261719 C 48.257812 17.261719 48.121094 16.992188 48.132812 16.730469 C 48.097656 16.644531 48.054688 16.585938 47.988281 16.585938 C 47.042969 16.585938 47.851562 18.066406 46.894531 18.328125 C 46.828125 18.3125 46.757812 18.28125 46.691406 18.25 C 46.210938 18.035156 45.792969 17.753906 45.554688 18.066406 C 45.152344 18.605469 46.90625 18.875 46.332031 19.890625 C 46.304688 19.929688 46.277344 19.964844 46.25 19.996094 C 44.703125 21.910156 43.527344 24.277344 42.972656 27.152344 C 42.960938 27.203125 42.953125 27.25 42.9375 27.304688 C 42.90625 27.410156 42.863281 27.511719 42.8125 27.613281 C 40.882812 23.644531 39.695312 18.722656 40.652344 14.117188 C 41.023438 12.804688 41.386719 12.257812 41.574219 11.96875 C 42.210938 11.011719 42.753906 10.1875 42.148438 9.855469 C 41.675781 9.597656 41.28125 9.980469 40.832031 10.613281 C 41.050781 9.886719 41.109375 9.328125 40.609375 9.199219 C 40.121094 9.070312 39.835938 9.472656 39.570312 10.117188 C 39.703125 9.386719 39.6875 8.839844 39.183594 8.769531 C 38.597656 8.6875 38.371094 9.296875 38.164062 10.171875 C 38.101562 9.289062 37.96875 8.625 37.398438 8.703125 C 36.710938 8.792969 36.761719 9.667969 36.820312 10.816406 C 36.832031 11.046875 36.566406 12.707031 36.597656 12.914062 C 35.925781 17.578125 38.085938 25.832031 41.878906 31.820312 C 41.503906 32.347656 41.207031 32.84375 41.636719 33.417969 C 41.890625 33.800781 42.144531 32.988281 42.511719 32.777344 C 42.539062 32.8125 42.5625 32.847656 42.585938 32.882812 C 42.589844 32.898438 42.589844 32.914062 42.59375 32.925781 C 42.601562 32.964844 42.617188 32.984375 42.648438 32.96875 C 42.648438 32.972656 42.652344 32.976562 42.652344 32.976562 C 42.710938 34.226562 40.964844 34.5 41.234375 35.4375 C 41.367188 35.84375 42.3125 34.898438 42.816406 35.578125 C 42.820312 35.621094 42.824219 35.664062 42.828125 35.707031 C 43.007812 37.695312 43.304688 39.464844 43.675781 41.027344 C 43.695312 41.097656 43.710938 41.167969 43.714844 41.238281 C 42.449219 41.363281 42.71875 42.441406 43.316406 43.125 C 43.261719 43.167969 43.203125 43.210938 43.144531 43.253906 C 42.84375 43.453125 42.605469 43.640625 42.71875 43.921875 C 42.855469 44.191406 43.15625 44.15625 43.511719 44.105469 C 43.585938 44.09375 43.65625 44.082031 43.726562 44.085938 C 44.339844 44.730469 43.394531 45.539062 43.933594 45.941406 C 44.339844 46.347656 44.476562 45 45.140625 45.433594 C 45.167969 45.484375 45.191406 45.53125 45.214844 45.582031 C 46.617188 48.617188 48.339844 50.210938 49.734375 50.570312 C 52.601562 51.304688 54.367188 48.894531 54.640625 45.789062 C 54.773438 44.246094 55.460938 42.875 56.636719 42.292969 C 58.089844 41.570312 60.785156 41.515625 60.925781 41.515625 C 61.0625 41.515625 63.757812 41.570312 65.210938 42.292969 C 66.386719 42.875 67.074219 44.246094 67.207031 45.789062 C 67.480469 48.894531 69.246094 51.304688 72.113281 50.570312 C 74.054688 50.070312 76.636719 47.179688 78.09375 41.332031 C 78.109375 41.273438 78.125 41.210938 78.140625 41.152344 C 79.0625 40.421875 79.46875 42.304688 79.871094 41.496094 C 80.277344 40.960938 78.925781 40.421875 79.242188 39.464844 C 79.308594 39.449219 79.386719 39.441406 79.464844 39.4375 C 80 39.402344 80.523438 39.46875 80.683594 39.074219 C 80.75 38.671875 80.34375 38.636719 79.886719 38.570312 " fill-opacity="1" fill-rule="nonzero"/></g><path fill="rgb(93.328857%, 16.079712%, 20.779419%)" d="M 74.464844 26.777344 C 74.464844 29.019531 72.640625 30.835938 70.390625 30.835938 C 68.140625 30.835938 66.316406 29.019531 66.316406 26.777344 C 66.316406 24.53125 68.140625 22.714844 70.390625 22.714844 C 72.640625 22.714844 74.464844 24.53125 74.464844 26.777344 " fill-opacity="1" fill-rule="nonzero"/><path fill="rgb(6.269836%, 5.879211%, 5.099487%)" d="M 73.152344 27.292969 C 73.152344 28.578125 72.105469 29.617188 70.816406 29.617188 C 69.527344 29.617188 68.480469 28.578125 68.480469 27.292969 C 68.480469 26.007812 69.527344 24.964844 70.816406 24.964844 C 72.105469 24.964844 73.152344 26.007812 73.152344 27.292969 " fill-opacity="1" fill-rule="nonzero"/><path fill="rgb(100%, 100%, 100%)" d="M 70.214844 25.550781 C 70.214844 26.089844 69.777344 26.523438 69.242188 26.523438 C 68.703125 26.523438 68.265625 26.089844 68.265625 25.550781 C 68.265625 25.015625 68.703125 24.582031 69.242188 24.582031 C 69.777344 24.582031 70.214844 25.015625 70.214844 25.550781 " fill-opacity="1" fill-rule="nonzero"/><path fill="rgb(100%, 100%, 100%)" d="M 72.941406 29.03125 C 72.941406 29.355469 72.675781 29.617188 72.351562 29.617188 C 72.027344 29.617188 71.761719 29.355469 71.761719 29.03125 C 71.761719 28.707031 72.027344 28.445312 72.351562 28.445312 C 72.675781 28.445312 72.941406 28.707031 72.941406 29.03125 " fill-opacity="1" fill-rule="nonzero"/><path fill="rgb(93.328857%, 16.079712%, 20.779419%)" d="M 55.570312 26.820312 C 55.570312 29.0625 53.746094 30.882812 51.496094 30.882812 C 49.246094 30.882812 47.421875 29.0625 47.421875 26.820312 C 47.421875 24.578125 49.246094 22.757812 51.496094 22.757812 C 53.746094 22.757812 55.570312 24.578125 55.570312 26.820312 " fill-opacity="1" fill-rule="nonzero"/><path fill="rgb(6.269836%, 5.879211%, 5.099487%)" d="M 54.253906 27.335938 C 54.253906 28.621094 53.210938 29.664062 51.917969 29.664062 C 50.628906 29.664062 49.585938 28.621094 49.585938 27.335938 C 49.585938 26.050781 50.628906 25.007812 51.917969 25.007812 C 53.210938 25.007812 54.253906 26.050781 54.253906 27.335938 " fill-opacity="1" fill-rule="nonzero"/><path fill="rgb(100%, 100%, 100%)" d="M 51.320312 25.597656 C 51.320312 26.132812 50.882812 26.570312 50.34375 26.570312 C 49.808594 26.570312 49.371094 26.132812 49.371094 25.597656 C 49.371094 25.0625 49.808594 24.625 50.34375 24.625 C 50.882812 24.625 51.320312 25.0625 51.320312 25.597656 " fill-opacity="1" fill-rule="nonzero"/><path fill="rgb(100%, 100%, 100%)" d="M 54.042969 29.078125 C 54.042969 29.402344 53.78125 29.664062 53.457031 29.664062 C 53.128906 29.664062 52.867188 29.402344 52.867188 29.078125 C 52.867188 28.753906 53.128906 28.488281 53.457031 28.488281 C 53.78125 28.488281 54.042969 28.753906 54.042969 29.078125 " fill-opacity="1" fill-rule="nonzero"/><path fill="rgb(100%, 100%, 100%)" d="M 55.34375 34.511719 C 54.484375 34.308594 53.664062 36.234375 52.929688 37.082031 C 52.140625 38.003906 55.972656 38.714844 55.945312 38.167969 C 55.867188 36.664062 56.246094 34.726562 55.34375 34.511719 " fill-opacity="1" fill-rule="nonzero"/><path fill="rgb(54.508972%, 84.709167%, 80.389404%)" d="M 74.257812 47.417969 C 74.015625 47.929688 73.554688 48.222656 73.230469 48.070312 C 72.90625 47.914062 72.839844 47.375 73.082031 46.863281 C 73.324219 46.351562 73.785156 46.058594 74.109375 46.210938 C 74.433594 46.363281 74.5 46.902344 74.257812 47.417969 " fill-opacity="1" fill-rule="nonzero"/><path fill="rgb(54.508972%, 84.709167%, 80.389404%)" d="M 73.988281 43.539062 C 73.816406 43.90625 73.484375 44.117188 73.25 44.007812 C 73.015625 43.898438 72.96875 43.507812 73.144531 43.140625 C 73.316406 42.769531 73.648438 42.5625 73.882812 42.671875 C 74.117188 42.78125 74.164062 43.167969 73.988281 43.539062 " fill-opacity="1" fill-rule="nonzero"/><path fill="rgb(54.508972%, 84.709167%, 80.389404%)" d="M 73.660156 45.222656 C 73.492188 45.574219 73.179688 45.773438 72.957031 45.667969 C 72.734375 45.566406 72.691406 45.195312 72.855469 44.84375 C 73.023438 44.496094 73.335938 44.292969 73.558594 44.398438 C 73.78125 44.503906 73.824219 44.871094 73.660156 45.222656 " fill-opacity="1" fill-rule="nonzero"/><path fill="rgb(54.508972%, 84.709167%, 80.389404%)" d="M 75.515625 45.320312 C 75.347656 45.671875 75.035156 45.871094 74.8125 45.765625 C 74.589844 45.660156 74.546875 45.292969 74.710938 44.941406 C 74.878906 44.589844 75.191406 44.390625 75.414062 44.496094 C 75.636719 44.601562 75.679688 44.96875 75.515625 45.320312 " fill-opacity="1" fill-rule="nonzero"/><path fill="rgb(54.508972%, 84.709167%, 80.389404%)" d="M 75.046875 43.773438 C 74.929688 44.023438 74.703125 44.164062 74.546875 44.089844 C 74.386719 44.015625 74.355469 43.753906 74.476562 43.503906 C 74.59375 43.253906 74.816406 43.109375 74.976562 43.183594 C 75.132812 43.257812 75.164062 43.523438 75.046875 43.773438 " fill-opacity="1" fill-rule="nonzero"/><path fill="rgb(54.508972%, 84.709167%, 80.389404%)" d="M 76.34375 43.273438 C 76.222656 43.523438 76 43.667969 75.839844 43.59375 C 75.683594 43.519531 75.652344 43.253906 75.769531 43.003906 C 75.886719 42.753906 76.113281 42.613281 76.269531 42.6875 C 76.429688 42.761719 76.460938 43.023438 76.34375 43.273438 " fill-opacity="1" fill-rule="nonzero"/><path fill="rgb(54.508972%, 84.709167%, 80.389404%)" d="M 47.746094 47.738281 C 47.988281 48.25 48.449219 48.542969 48.773438 48.390625 C 49.097656 48.238281 49.164062 47.699219 48.921875 47.1875 C 48.679688 46.671875 48.21875 46.382812 47.894531 46.535156 C 47.570312 46.6875 47.503906 47.226562 47.746094 47.738281 " fill-opacity="1" fill-rule="nonzero"/><path fill="rgb(54.508972%, 84.709167%, 80.389404%)" d="M 48.015625 43.859375 C 48.191406 44.230469 48.519531 44.441406 48.753906 44.328125 C 48.988281 44.21875 49.035156 43.832031 48.859375 43.460938 C 48.6875 43.09375 48.355469 42.882812 48.121094 42.992188 C 47.886719 43.101562 47.839844 43.492188 48.015625 43.859375 " fill-opacity="1" fill-rule="nonzero"/><path fill="rgb(54.508972%, 84.709167%, 80.389404%)" d="M 48.34375 45.546875 C 48.511719 45.894531 48.824219 46.097656 49.046875 45.992188 C 49.269531 45.886719 49.316406 45.519531 49.148438 45.167969 C 48.984375 44.816406 48.667969 44.617188 48.445312 44.722656 C 48.222656 44.824219 48.179688 45.195312 48.34375 45.546875 " fill-opacity="1" fill-rule="nonzero"/><path fill="rgb(54.508972%, 84.709167%, 80.389404%)" d="M 46.488281 45.640625 C 46.65625 45.992188 46.96875 46.191406 47.191406 46.085938 C 47.414062 45.984375 47.460938 45.613281 47.292969 45.261719 C 47.128906 44.914062 46.8125 44.714844 46.589844 44.816406 C 46.367188 44.921875 46.324219 45.292969 46.488281 45.640625 " fill-opacity="1" fill-rule="nonzero"/><path fill="rgb(54.508972%, 84.709167%, 80.389404%)" d="M 46.957031 44.09375 C 47.074219 44.34375 47.300781 44.484375 47.457031 44.410156 C 47.617188 44.335938 47.648438 44.074219 47.53125 43.824219 C 47.410156 43.574219 47.1875 43.433594 47.027344 43.507812 C 46.871094 43.582031 46.839844 43.84375 46.957031 44.09375 " fill-opacity="1" fill-rule="nonzero"/><path fill="rgb(54.508972%, 84.709167%, 80.389404%)" d="M 45.660156 43.597656 C 45.78125 43.847656 46.003906 43.988281 46.164062 43.914062 C 46.320312 43.839844 46.351562 43.578125 46.234375 43.328125 C 46.117188 43.078125 45.890625 42.933594 45.734375 43.007812 C 45.574219 43.082031 45.542969 43.347656 45.660156 43.597656 " fill-opacity="1" fill-rule="nonzero"/><path fill="rgb(54.508972%, 84.709167%, 80.389404%)" d="M 65.441406 17.035156 C 64.875 17.078125 64.394531 16.820312 64.367188 16.464844 C 64.34375 16.105469 64.78125 15.785156 65.347656 15.746094 C 65.917969 15.703125 66.398438 15.960938 66.421875 16.316406 C 66.449219 16.671875 66.007812 16.996094 65.441406 17.035156 " fill-opacity="1" fill-rule="nonzero"/><path fill="rgb(54.508972%, 84.709167%, 80.389404%)" d="M 60.34375 15.988281 C 60.34375 16.394531 60.132812 16.726562 59.875 16.726562 C 59.617188 16.726562 59.40625 16.394531 59.40625 15.988281 C 59.40625 15.578125 59.617188 15.246094 59.875 15.246094 C 60.132812 15.246094 60.34375 15.578125 60.34375 15.988281 " fill-opacity="1" fill-rule="nonzero"/><path fill="rgb(54.508972%, 84.709167%, 80.389404%)" d="M 58.148438 15.738281 C 58.148438 16.128906 57.949219 16.441406 57.703125 16.441406 C 57.457031 16.441406 57.257812 16.128906 57.257812 15.738281 C 57.257812 15.351562 57.457031 15.039062 57.703125 15.039062 C 57.949219 15.039062 58.148438 15.351562 58.148438 15.738281 " fill-opacity="1" fill-rule="nonzero"/><path fill="rgb(54.508972%, 84.709167%, 80.389404%)" d="M 62.226562 17.351562 C 61.871094 17.511719 61.5 17.460938 61.398438 17.238281 C 61.296875 17.015625 61.503906 16.707031 61.859375 16.546875 C 62.210938 16.386719 62.582031 16.4375 62.683594 16.660156 C 62.785156 16.882812 62.582031 17.191406 62.226562 17.351562 " fill-opacity="1" fill-rule="nonzero"/><path fill="rgb(54.508972%, 84.709167%, 80.389404%)" d="M 61.402344 15.75 C 61.402344 16.023438 61.257812 16.25 61.082031 16.25 C 60.910156 16.25 60.765625 16.023438 60.765625 15.75 C 60.765625 15.472656 60.910156 15.246094 61.082031 15.246094 C 61.257812 15.246094 61.402344 15.472656 61.402344 15.75 " fill-opacity="1" fill-rule="nonzero"/><path fill="rgb(54.508972%, 84.709167%, 80.389404%)" d="M 62.117188 15.054688 C 61.847656 15.121094 61.597656 15.039062 61.554688 14.867188 C 61.511719 14.699219 61.695312 14.507812 61.964844 14.441406 C 62.234375 14.375 62.488281 14.457031 62.527344 14.625 C 62.570312 14.796875 62.386719 14.988281 62.117188 15.054688 " fill-opacity="1" fill-rule="nonzero"/><path fill="rgb(6.269836%, 5.879211%, 5.099487%)" d="M 73.210938 32.902344 C 73.023438 32.828125 72.804688 32.902344 72.722656 33.074219 C 72.054688 34.4375 69.238281 38.863281 60.945312 38.925781 C 52.65625 38.863281 49.839844 34.4375 49.171875 33.074219 C 49.089844 32.902344 48.871094 32.828125 48.683594 32.902344 C 48.5 32.980469 48.417969 33.179688 48.5 33.347656 C 49.207031 34.792969 52.164062 39.460938 60.734375 39.601562 C 60.746094 39.601562 60.757812 39.601562 60.769531 39.601562 C 60.828125 39.601562 60.886719 39.601562 60.945312 39.601562 C 61.007812 39.601562 61.066406 39.601562 61.125 39.601562 C 61.136719 39.601562 61.148438 39.601562 61.160156 39.601562 C 69.734375 39.460938 72.6875 34.792969 73.394531 33.347656 C 73.476562 33.179688 73.394531 32.980469 73.210938 32.902344 " fill-opacity="1" fill-rule="nonzero"/></svg>