<svg width="1240" height="92" viewBox="0 0 1240 92" fill="none" xmlns="http://www.w3.org/2000/svg">
<path opacity="0.4" fill-rule="evenodd" clip-rule="evenodd" d="M1240 74.0662L1240 9.31454e-05L7.96252e-06 -1.52588e-05L0 91.0806C35.9208 89.5507 84.3809 86.9784 131.715 81.6292C150.85 79.4414 169.813 76.8551 188.652 74.2857C237.276 67.654 285.073 61.1353 332.869 61.8718C368.814 62.5866 404.15 67.0504 439.197 71.4776C470.964 75.4906 502.494 79.4736 534.024 80.6073C581.904 82.0354 628.704 77.144 675.933 72.2078C696.298 70.0792 716.743 67.9424 737.389 66.3003C803.704 60.8499 870.019 60.85 938.544 61.8719C1004.86 63.2345 1071.17 65.2784 1139.7 68.6848C1174.31 70.285 1209.53 72.2564 1240 74.0662Z" fill="#0099FF"/>
</svg>
